%FSLAX45Y45*%
G04 Gerber Fmt 4.5, Leading zero omitted, Abs format (unit mm)*
G04 Created by KiCad (PCBNEW 4.0.4-stable) date Fri Jul 14 18:39:54 2017*
%MOMM*%
%LPD*%
G01*
G04 APERTURE LIST*
%ADD10C,0.127000*%
%ADD11C,0.150000*%
%ADD12C,0.200000*%
%ADD13C,0.300000*%
G04 APERTURE END LIST*
D10*
D11*
X16510000Y-12791440D02*
X16174720Y-12791440D01*
X16174720Y-3683000D02*
X16174720Y-12791440D01*
X27442160Y-3683000D02*
X16174720Y-3683000D01*
X27442160Y-12791440D02*
X27442160Y-3683000D01*
X16510000Y-12791440D02*
X27442160Y-12791440D01*
D12*
X19255000Y-6725000D02*
X19335000Y-6805000D01*
X19335000Y-6725000D02*
X19255000Y-6805000D01*
X19255000Y-7741000D02*
X19335000Y-7821000D01*
X19335000Y-7741000D02*
X19255000Y-7821000D01*
X19270200Y-11005840D02*
X19350200Y-11085840D01*
X19350200Y-11005840D02*
X19270200Y-11085840D01*
X19270200Y-12021840D02*
X19350200Y-12101840D01*
X19350200Y-12021840D02*
X19270200Y-12101840D01*
X19271000Y-8857480D02*
X19351000Y-8937480D01*
X19351000Y-8857480D02*
X19271000Y-8937480D01*
X19271000Y-9873480D02*
X19351000Y-9953480D01*
X19351000Y-9873480D02*
X19271000Y-9953480D01*
X19280000Y-4590000D02*
X19360000Y-4670000D01*
X19360000Y-4590000D02*
X19280000Y-4670000D01*
X19280000Y-5606000D02*
X19360000Y-5686000D01*
X19360000Y-5606000D02*
X19280000Y-5686000D01*
X19642000Y-5145000D02*
X19722000Y-5225000D01*
X19722000Y-5145000D02*
X19642000Y-5225000D01*
X19652000Y-9436600D02*
X19732000Y-9516600D01*
X19732000Y-9436600D02*
X19652000Y-9516600D01*
X19702000Y-11605280D02*
X19782000Y-11685280D01*
X19782000Y-11605280D02*
X19702000Y-11685280D01*
X19727000Y-7285000D02*
X19807000Y-7365000D01*
X19807000Y-7285000D02*
X19727000Y-7365000D01*
X19896000Y-4891000D02*
X19976000Y-4971000D01*
X19976000Y-4891000D02*
X19896000Y-4971000D01*
X19906000Y-9182600D02*
X19986000Y-9262600D01*
X19986000Y-9182600D02*
X19906000Y-9262600D01*
X19956000Y-11351280D02*
X20036000Y-11431280D01*
X20036000Y-11351280D02*
X19956000Y-11431280D01*
X19981000Y-7031000D02*
X20061000Y-7111000D01*
X20061000Y-7031000D02*
X19981000Y-7111000D01*
X20150000Y-5145000D02*
X20230000Y-5225000D01*
X20230000Y-5145000D02*
X20150000Y-5225000D01*
X20160000Y-9436600D02*
X20240000Y-9516600D01*
X20240000Y-9436600D02*
X20160000Y-9516600D01*
X20210000Y-11605280D02*
X20290000Y-11685280D01*
X20290000Y-11605280D02*
X20210000Y-11685280D01*
X20235000Y-7285000D02*
X20315000Y-7365000D01*
X20315000Y-7285000D02*
X20235000Y-7365000D01*
X18215000Y-5005000D02*
G75*
G03X18215000Y-5005000I-50000J0D01*
G01*
X18215000Y-5505000D02*
G75*
G03X18215000Y-5505000I-50000J0D01*
G01*
X18220000Y-7125000D02*
G75*
G03X18220000Y-7125000I-50000J0D01*
G01*
X18220000Y-7625000D02*
G75*
G03X18220000Y-7625000I-50000J0D01*
G01*
X18220000Y-9135000D02*
G75*
G03X18220000Y-9135000I-50000J0D01*
G01*
X18220000Y-9635000D02*
G75*
G03X18220000Y-9635000I-50000J0D01*
G01*
X18220000Y-11225000D02*
G75*
G03X18220000Y-11225000I-50000J0D01*
G01*
X18220000Y-11725000D02*
G75*
G03X18220000Y-11725000I-50000J0D01*
G01*
X21845000Y-9645000D02*
G75*
G03X21845000Y-9645000I-50000J0D01*
G01*
X21855000Y-9305000D02*
G75*
G03X21855000Y-9305000I-50000J0D01*
G01*
X21860000Y-7510000D02*
G75*
G03X21860000Y-7510000I-50000J0D01*
G01*
X21860000Y-11420000D02*
G75*
G03X21860000Y-11420000I-50000J0D01*
G01*
X21865000Y-11850000D02*
G75*
G03X21865000Y-11850000I-50000J0D01*
G01*
X21875000Y-7115000D02*
G75*
G03X21875000Y-7115000I-50000J0D01*
G01*
X21895000Y-4965000D02*
G75*
G03X21895000Y-4965000I-50000J0D01*
G01*
X21900000Y-5325000D02*
G75*
G03X21900000Y-5325000I-50000J0D01*
G01*
X22025000Y-8935000D02*
G75*
G03X22025000Y-8935000I-50000J0D01*
G01*
X22030000Y-11050000D02*
G75*
G03X22030000Y-11050000I-50000J0D01*
G01*
X22045000Y-6745000D02*
G75*
G03X22045000Y-6745000I-50000J0D01*
G01*
X22065000Y-4595000D02*
G75*
G03X22065000Y-4595000I-50000J0D01*
G01*
X22195000Y-9305000D02*
G75*
G03X22195000Y-9305000I-50000J0D01*
G01*
X22200000Y-11420000D02*
G75*
G03X22200000Y-11420000I-50000J0D01*
G01*
X22215000Y-7115000D02*
G75*
G03X22215000Y-7115000I-50000J0D01*
G01*
X22235000Y-4965000D02*
G75*
G03X22235000Y-4965000I-50000J0D01*
G01*
X22365000Y-8935000D02*
G75*
G03X22365000Y-8935000I-50000J0D01*
G01*
X22370000Y-11050000D02*
G75*
G03X22370000Y-11050000I-50000J0D01*
G01*
X22385000Y-6745000D02*
G75*
G03X22385000Y-6745000I-50000J0D01*
G01*
X22405000Y-4595000D02*
G75*
G03X22405000Y-4595000I-50000J0D01*
G01*
X22535000Y-9305000D02*
G75*
G03X22535000Y-9305000I-50000J0D01*
G01*
X22535000Y-9650000D02*
G75*
G03X22535000Y-9650000I-50000J0D01*
G01*
X22540000Y-11420000D02*
G75*
G03X22540000Y-11420000I-50000J0D01*
G01*
X22540000Y-11850000D02*
G75*
G03X22540000Y-11850000I-50000J0D01*
G01*
X22555000Y-7115000D02*
G75*
G03X22555000Y-7115000I-50000J0D01*
G01*
X22555000Y-7510000D02*
G75*
G03X22555000Y-7510000I-50000J0D01*
G01*
X22570000Y-5340000D02*
G75*
G03X22570000Y-5340000I-50000J0D01*
G01*
X22575000Y-4965000D02*
G75*
G03X22575000Y-4965000I-50000J0D01*
G01*
X24720000Y-4425000D02*
G75*
G03X24720000Y-4425000I-50000J0D01*
G01*
X24720000Y-4925000D02*
G75*
G03X24720000Y-4925000I-50000J0D01*
G01*
X24730000Y-6555000D02*
G75*
G03X24730000Y-6555000I-50000J0D01*
G01*
X24730000Y-7055000D02*
G75*
G03X24730000Y-7055000I-50000J0D01*
G01*
X24730000Y-10775000D02*
G75*
G03X24730000Y-10775000I-50000J0D01*
G01*
X24730000Y-11275000D02*
G75*
G03X24730000Y-11275000I-50000J0D01*
G01*
X24755000Y-8630000D02*
G75*
G03X24755000Y-8630000I-50000J0D01*
G01*
X24755000Y-9130000D02*
G75*
G03X24755000Y-9130000I-50000J0D01*
G01*
X25390000Y-7130000D02*
G75*
G03X25390000Y-7130000I-50000J0D01*
G01*
X25390000Y-7890000D02*
G75*
G03X25390000Y-7890000I-50000J0D01*
G01*
X25395000Y-12225000D02*
G75*
G03X25395000Y-12225000I-50000J0D01*
G01*
X25400000Y-5020000D02*
G75*
G03X25400000Y-5020000I-50000J0D01*
G01*
X25401000Y-5783000D02*
G75*
G03X25401000Y-5783000I-50000J0D01*
G01*
X25405000Y-11410000D02*
G75*
G03X25405000Y-11410000I-50000J0D01*
G01*
X25425000Y-10045000D02*
G75*
G03X25425000Y-10045000I-50000J0D01*
G01*
X25435000Y-9190000D02*
G75*
G03X25435000Y-9190000I-50000J0D01*
G01*
X26212000Y-8788600D02*
G75*
G03X26212000Y-8788600I-50000J0D01*
G01*
X26212000Y-9042600D02*
G75*
G03X26212000Y-9042600I-50000J0D01*
G01*
X26212000Y-9245600D02*
G75*
G03X26212000Y-9245600I-50000J0D01*
G01*
X26212000Y-9499600D02*
G75*
G03X26212000Y-9499600I-50000J0D01*
G01*
X26212000Y-10973000D02*
G75*
G03X26212000Y-10973000I-50000J0D01*
G01*
X26212000Y-11227000D02*
G75*
G03X26212000Y-11227000I-50000J0D01*
G01*
X26212000Y-11430000D02*
G75*
G03X26212000Y-11430000I-50000J0D01*
G01*
X26212000Y-11684000D02*
G75*
G03X26212000Y-11684000I-50000J0D01*
G01*
X23165000Y-11221962D02*
X23165000Y-11322038D01*
X23114962Y-11272000D02*
X23215038Y-11272000D01*
X23170000Y-4876962D02*
X23170000Y-4977038D01*
X23119962Y-4927000D02*
X23220038Y-4927000D01*
X23175000Y-7006962D02*
X23175000Y-7107038D01*
X23124962Y-7057000D02*
X23225038Y-7057000D01*
X23175000Y-9086962D02*
X23175000Y-9187038D01*
X23124962Y-9137000D02*
X23225038Y-9137000D01*
X23927000Y-11221962D02*
X23927000Y-11322038D01*
X23876962Y-11272000D02*
X23977038Y-11272000D01*
X23932000Y-4876962D02*
X23932000Y-4977038D01*
X23881962Y-4927000D02*
X23982038Y-4927000D01*
X23937000Y-7006962D02*
X23937000Y-7107038D01*
X23886962Y-7057000D02*
X23987038Y-7057000D01*
X23937000Y-9086962D02*
X23937000Y-9187038D01*
X23886962Y-9137000D02*
X23987038Y-9137000D01*
X26187488Y-4631276D02*
X26187488Y-4731352D01*
X26137450Y-4681314D02*
X26237526Y-4681314D01*
X26187488Y-4885276D02*
X26187488Y-4985352D01*
X26137450Y-4935314D02*
X26237526Y-4935314D01*
X26187488Y-5088476D02*
X26187488Y-5188552D01*
X26137450Y-5138514D02*
X26237526Y-5138514D01*
X26187488Y-5342476D02*
X26187488Y-5442552D01*
X26137450Y-5392514D02*
X26237526Y-5392514D01*
X26189788Y-6693676D02*
X26189788Y-6793752D01*
X26139750Y-6743714D02*
X26239826Y-6743714D01*
X26189788Y-6947676D02*
X26189788Y-7047752D01*
X26139750Y-6997714D02*
X26239826Y-6997714D01*
X26189788Y-7150876D02*
X26189788Y-7250952D01*
X26139750Y-7200914D02*
X26239826Y-7200914D01*
X26189788Y-7404876D02*
X26189788Y-7504952D01*
X26139750Y-7454914D02*
X26239826Y-7454914D01*
X16717730Y-4352730D02*
X16717730Y-4257270D01*
X16622270Y-4257270D01*
X16622270Y-4352730D01*
X16717730Y-4352730D01*
X16717730Y-6467730D02*
X16717730Y-6372270D01*
X16622270Y-6372270D01*
X16622270Y-6467730D01*
X16717730Y-6467730D01*
X16717730Y-8482730D02*
X16717730Y-8387270D01*
X16622270Y-8387270D01*
X16622270Y-8482730D01*
X16717730Y-8482730D01*
X16717730Y-10582730D02*
X16717730Y-10487270D01*
X16622270Y-10487270D01*
X16622270Y-10582730D01*
X16717730Y-10582730D01*
X17217730Y-4352730D02*
X17217730Y-4257270D01*
X17122270Y-4257270D01*
X17122270Y-4352730D01*
X17217730Y-4352730D01*
X17217730Y-6467730D02*
X17217730Y-6372270D01*
X17122270Y-6372270D01*
X17122270Y-6467730D01*
X17217730Y-6467730D01*
X17217730Y-8482730D02*
X17217730Y-8387270D01*
X17122270Y-8387270D01*
X17122270Y-8482730D01*
X17217730Y-8482730D01*
X17217730Y-10582730D02*
X17217730Y-10487270D01*
X17122270Y-10487270D01*
X17122270Y-10582730D01*
X17217730Y-10582730D01*
X18217730Y-4352730D02*
X18217730Y-4257270D01*
X18122270Y-4257270D01*
X18122270Y-4352730D01*
X18217730Y-4352730D01*
X18217730Y-6467730D02*
X18217730Y-6372270D01*
X18122270Y-6372270D01*
X18122270Y-6467730D01*
X18217730Y-6467730D01*
X18217730Y-8482730D02*
X18217730Y-8387270D01*
X18122270Y-8387270D01*
X18122270Y-8482730D01*
X18217730Y-8482730D01*
X18217730Y-10582730D02*
X18217730Y-10487270D01*
X18122270Y-10487270D01*
X18122270Y-10582730D01*
X18217730Y-10582730D01*
X18717730Y-4352730D02*
X18717730Y-4257270D01*
X18622270Y-4257270D01*
X18622270Y-4352730D01*
X18717730Y-4352730D01*
X18717730Y-6467730D02*
X18717730Y-6372270D01*
X18622270Y-6372270D01*
X18622270Y-6467730D01*
X18717730Y-6467730D01*
X18717730Y-8482730D02*
X18717730Y-8387270D01*
X18622270Y-8387270D01*
X18622270Y-8482730D01*
X18717730Y-8482730D01*
X18717730Y-10582730D02*
X18717730Y-10487270D01*
X18622270Y-10487270D01*
X18622270Y-10582730D01*
X18717730Y-10582730D01*
X16670000Y-11313000D02*
X16746000Y-11237000D01*
X16670000Y-11161000D01*
X16594000Y-11237000D01*
X16670000Y-11313000D01*
X16670000Y-11821000D02*
X16746000Y-11745000D01*
X16670000Y-11669000D01*
X16594000Y-11745000D01*
X16670000Y-11821000D01*
X20935000Y-4165000D02*
X21095000Y-4325000D01*
X21095000Y-4165000D02*
X20935000Y-4325000D01*
X21095000Y-4245000D02*
G75*
G03X21095000Y-4245000I-80000J0D01*
G01*
X20935000Y-5689000D02*
X21095000Y-5849000D01*
X21095000Y-5689000D02*
X20935000Y-5849000D01*
X21095000Y-5769000D02*
G75*
G03X21095000Y-5769000I-80000J0D01*
G01*
X20945000Y-6310000D02*
X21105000Y-6470000D01*
X21105000Y-6310000D02*
X20945000Y-6470000D01*
X21105000Y-6390000D02*
G75*
G03X21105000Y-6390000I-80000J0D01*
G01*
X20945000Y-7834000D02*
X21105000Y-7994000D01*
X21105000Y-7834000D02*
X20945000Y-7994000D01*
X21105000Y-7914000D02*
G75*
G03X21105000Y-7914000I-80000J0D01*
G01*
X20955000Y-8500000D02*
X21115000Y-8660000D01*
X21115000Y-8500000D02*
X20955000Y-8660000D01*
X21115000Y-8580000D02*
G75*
G03X21115000Y-8580000I-80000J0D01*
G01*
X20955000Y-10024000D02*
X21115000Y-10184000D01*
X21115000Y-10024000D02*
X20955000Y-10184000D01*
X21115000Y-10104000D02*
G75*
G03X21115000Y-10104000I-80000J0D01*
G01*
X20960000Y-10650000D02*
X21120000Y-10810000D01*
X21120000Y-10650000D02*
X20960000Y-10810000D01*
X21120000Y-10730000D02*
G75*
G03X21120000Y-10730000I-80000J0D01*
G01*
X20960000Y-12174000D02*
X21120000Y-12334000D01*
X21120000Y-12174000D02*
X20960000Y-12334000D01*
X21120000Y-12254000D02*
G75*
G03X21120000Y-12254000I-80000J0D01*
G01*
X26314000Y-8368600D02*
X26544000Y-8598600D01*
X26544000Y-8368600D02*
X26314000Y-8598600D01*
X26429000Y-8368600D02*
X26429000Y-8598600D01*
X26314000Y-8483600D02*
X26544000Y-8483600D01*
X26314000Y-9740600D02*
X26544000Y-9970600D01*
X26544000Y-9740600D02*
X26314000Y-9970600D01*
X26429000Y-9740600D02*
X26429000Y-9970600D01*
X26314000Y-9855600D02*
X26544000Y-9855600D01*
X26314000Y-10553000D02*
X26544000Y-10783000D01*
X26544000Y-10553000D02*
X26314000Y-10783000D01*
X26429000Y-10553000D02*
X26429000Y-10783000D01*
X26314000Y-10668000D02*
X26544000Y-10668000D01*
X26314000Y-11925000D02*
X26544000Y-12155000D01*
X26544000Y-11925000D02*
X26314000Y-12155000D01*
X26429000Y-11925000D02*
X26429000Y-12155000D01*
X26314000Y-12040000D02*
X26544000Y-12040000D01*
X26339126Y-4261452D02*
X26569250Y-4491576D01*
X26569250Y-4261452D02*
X26339126Y-4491576D01*
X26535550Y-4457876D02*
X26535550Y-4295152D01*
X26372826Y-4295152D01*
X26372826Y-4457876D01*
X26535550Y-4457876D01*
X26339126Y-5633052D02*
X26569250Y-5863176D01*
X26569250Y-5633052D02*
X26339126Y-5863176D01*
X26535550Y-5829476D02*
X26535550Y-5666752D01*
X26372826Y-5666752D01*
X26372826Y-5829476D01*
X26535550Y-5829476D01*
X26341426Y-6323852D02*
X26571550Y-6553976D01*
X26571550Y-6323852D02*
X26341426Y-6553976D01*
X26537850Y-6520276D02*
X26537850Y-6357552D01*
X26375126Y-6357552D01*
X26375126Y-6520276D01*
X26537850Y-6520276D01*
X26341426Y-7695452D02*
X26571550Y-7925576D01*
X26571550Y-7695452D02*
X26341426Y-7925576D01*
X26537850Y-7891876D02*
X26537850Y-7729152D01*
X26375126Y-7729152D01*
X26375126Y-7891876D01*
X26537850Y-7891876D01*
D13*
X16438648Y-13264654D02*
X16438648Y-12964654D01*
X16510077Y-12964654D01*
X16552934Y-12978940D01*
X16581506Y-13007511D01*
X16595791Y-13036083D01*
X16610077Y-13093226D01*
X16610077Y-13136083D01*
X16595791Y-13193226D01*
X16581506Y-13221797D01*
X16552934Y-13250369D01*
X16510077Y-13264654D01*
X16438648Y-13264654D01*
X16738648Y-13264654D02*
X16738648Y-13064654D01*
X16738648Y-13121797D02*
X16752934Y-13093226D01*
X16767220Y-13078940D01*
X16795791Y-13064654D01*
X16824363Y-13064654D01*
X16924363Y-13264654D02*
X16924363Y-13064654D01*
X16924363Y-12964654D02*
X16910077Y-12978940D01*
X16924363Y-12993226D01*
X16938649Y-12978940D01*
X16924363Y-12964654D01*
X16924363Y-12993226D01*
X17110077Y-13264654D02*
X17081506Y-13250369D01*
X17067220Y-13221797D01*
X17067220Y-12964654D01*
X17267220Y-13264654D02*
X17238649Y-13250369D01*
X17224363Y-13221797D01*
X17224363Y-12964654D01*
X17610077Y-13264654D02*
X17610077Y-12964654D01*
X17710077Y-13178940D01*
X17810077Y-12964654D01*
X17810077Y-13264654D01*
X18081506Y-13264654D02*
X18081506Y-13107511D01*
X18067220Y-13078940D01*
X18038649Y-13064654D01*
X17981506Y-13064654D01*
X17952934Y-13078940D01*
X18081506Y-13250369D02*
X18052934Y-13264654D01*
X17981506Y-13264654D01*
X17952934Y-13250369D01*
X17938649Y-13221797D01*
X17938649Y-13193226D01*
X17952934Y-13164654D01*
X17981506Y-13150369D01*
X18052934Y-13150369D01*
X18081506Y-13136083D01*
X18224363Y-13064654D02*
X18224363Y-13364654D01*
X18224363Y-13078940D02*
X18252934Y-13064654D01*
X18310077Y-13064654D01*
X18338649Y-13078940D01*
X18352934Y-13093226D01*
X18367220Y-13121797D01*
X18367220Y-13207511D01*
X18352934Y-13236083D01*
X18338649Y-13250369D01*
X18310077Y-13264654D01*
X18252934Y-13264654D01*
X18224363Y-13250369D01*
X18495791Y-13236083D02*
X18510077Y-13250369D01*
X18495791Y-13264654D01*
X18481506Y-13250369D01*
X18495791Y-13236083D01*
X18495791Y-13264654D01*
X18495791Y-13078940D02*
X18510077Y-13093226D01*
X18495791Y-13107511D01*
X18481506Y-13093226D01*
X18495791Y-13078940D01*
X18495791Y-13107511D01*
X16087220Y-13718940D02*
X16167220Y-13798940D01*
X16167220Y-13718940D02*
X16087220Y-13798940D01*
X16495791Y-13594654D02*
X16524363Y-13594654D01*
X16552934Y-13608940D01*
X16567220Y-13623226D01*
X16581506Y-13651797D01*
X16595791Y-13708940D01*
X16595791Y-13780369D01*
X16581506Y-13837511D01*
X16567220Y-13866083D01*
X16552934Y-13880369D01*
X16524363Y-13894654D01*
X16495791Y-13894654D01*
X16467220Y-13880369D01*
X16452934Y-13866083D01*
X16438648Y-13837511D01*
X16424363Y-13780369D01*
X16424363Y-13708940D01*
X16438648Y-13651797D01*
X16452934Y-13623226D01*
X16467220Y-13608940D01*
X16495791Y-13594654D01*
X16724363Y-13866083D02*
X16738648Y-13880369D01*
X16724363Y-13894654D01*
X16710077Y-13880369D01*
X16724363Y-13866083D01*
X16724363Y-13894654D01*
X16910077Y-13723226D02*
X16881506Y-13708940D01*
X16867220Y-13694654D01*
X16852934Y-13666083D01*
X16852934Y-13651797D01*
X16867220Y-13623226D01*
X16881506Y-13608940D01*
X16910077Y-13594654D01*
X16967220Y-13594654D01*
X16995791Y-13608940D01*
X17010077Y-13623226D01*
X17024363Y-13651797D01*
X17024363Y-13666083D01*
X17010077Y-13694654D01*
X16995791Y-13708940D01*
X16967220Y-13723226D01*
X16910077Y-13723226D01*
X16881506Y-13737511D01*
X16867220Y-13751797D01*
X16852934Y-13780369D01*
X16852934Y-13837511D01*
X16867220Y-13866083D01*
X16881506Y-13880369D01*
X16910077Y-13894654D01*
X16967220Y-13894654D01*
X16995791Y-13880369D01*
X17010077Y-13866083D01*
X17024363Y-13837511D01*
X17024363Y-13780369D01*
X17010077Y-13751797D01*
X16995791Y-13737511D01*
X16967220Y-13723226D01*
X17210077Y-13594654D02*
X17238649Y-13594654D01*
X17267220Y-13608940D01*
X17281506Y-13623226D01*
X17295791Y-13651797D01*
X17310077Y-13708940D01*
X17310077Y-13780369D01*
X17295791Y-13837511D01*
X17281506Y-13866083D01*
X17267220Y-13880369D01*
X17238649Y-13894654D01*
X17210077Y-13894654D01*
X17181506Y-13880369D01*
X17167220Y-13866083D01*
X17152934Y-13837511D01*
X17138649Y-13780369D01*
X17138649Y-13708940D01*
X17152934Y-13651797D01*
X17167220Y-13623226D01*
X17181506Y-13608940D01*
X17210077Y-13594654D01*
X17438649Y-13894654D02*
X17438649Y-13694654D01*
X17438649Y-13723226D02*
X17452934Y-13708940D01*
X17481506Y-13694654D01*
X17524363Y-13694654D01*
X17552934Y-13708940D01*
X17567220Y-13737511D01*
X17567220Y-13894654D01*
X17567220Y-13737511D02*
X17581506Y-13708940D01*
X17610077Y-13694654D01*
X17652934Y-13694654D01*
X17681506Y-13708940D01*
X17695791Y-13737511D01*
X17695791Y-13894654D01*
X17838649Y-13894654D02*
X17838649Y-13694654D01*
X17838649Y-13723226D02*
X17852934Y-13708940D01*
X17881506Y-13694654D01*
X17924363Y-13694654D01*
X17952934Y-13708940D01*
X17967220Y-13737511D01*
X17967220Y-13894654D01*
X17967220Y-13737511D02*
X17981506Y-13708940D01*
X18010077Y-13694654D01*
X18052934Y-13694654D01*
X18081506Y-13708940D01*
X18095791Y-13737511D01*
X18095791Y-13894654D01*
X18681506Y-13580369D02*
X18424363Y-13966083D01*
X19067220Y-13594654D02*
X19095791Y-13594654D01*
X19124363Y-13608940D01*
X19138648Y-13623226D01*
X19152934Y-13651797D01*
X19167220Y-13708940D01*
X19167220Y-13780369D01*
X19152934Y-13837511D01*
X19138648Y-13866083D01*
X19124363Y-13880369D01*
X19095791Y-13894654D01*
X19067220Y-13894654D01*
X19038648Y-13880369D01*
X19024363Y-13866083D01*
X19010077Y-13837511D01*
X18995791Y-13780369D01*
X18995791Y-13708940D01*
X19010077Y-13651797D01*
X19024363Y-13623226D01*
X19038648Y-13608940D01*
X19067220Y-13594654D01*
X19295791Y-13866083D02*
X19310077Y-13880369D01*
X19295791Y-13894654D01*
X19281506Y-13880369D01*
X19295791Y-13866083D01*
X19295791Y-13894654D01*
X19495791Y-13594654D02*
X19524363Y-13594654D01*
X19552934Y-13608940D01*
X19567220Y-13623226D01*
X19581506Y-13651797D01*
X19595791Y-13708940D01*
X19595791Y-13780369D01*
X19581506Y-13837511D01*
X19567220Y-13866083D01*
X19552934Y-13880369D01*
X19524363Y-13894654D01*
X19495791Y-13894654D01*
X19467220Y-13880369D01*
X19452934Y-13866083D01*
X19438648Y-13837511D01*
X19424363Y-13780369D01*
X19424363Y-13708940D01*
X19438648Y-13651797D01*
X19452934Y-13623226D01*
X19467220Y-13608940D01*
X19495791Y-13594654D01*
X19695791Y-13594654D02*
X19881506Y-13594654D01*
X19781506Y-13708940D01*
X19824363Y-13708940D01*
X19852934Y-13723226D01*
X19867220Y-13737511D01*
X19881506Y-13766083D01*
X19881506Y-13837511D01*
X19867220Y-13866083D01*
X19852934Y-13880369D01*
X19824363Y-13894654D01*
X19738648Y-13894654D01*
X19710077Y-13880369D01*
X19695791Y-13866083D01*
X20167220Y-13894654D02*
X19995791Y-13894654D01*
X20081506Y-13894654D02*
X20081506Y-13594654D01*
X20052934Y-13637511D01*
X20024363Y-13666083D01*
X19995791Y-13680369D01*
X20281506Y-13594654D02*
X20281506Y-13651797D01*
X20395791Y-13594654D02*
X20395791Y-13651797D01*
X20838648Y-14008940D02*
X20824363Y-13994654D01*
X20795791Y-13951797D01*
X20781506Y-13923226D01*
X20767220Y-13880369D01*
X20752934Y-13808940D01*
X20752934Y-13751797D01*
X20767220Y-13680369D01*
X20781506Y-13637511D01*
X20795791Y-13608940D01*
X20824363Y-13566083D01*
X20838648Y-13551797D01*
X20938648Y-13623226D02*
X20952934Y-13608940D01*
X20981506Y-13594654D01*
X21052934Y-13594654D01*
X21081506Y-13608940D01*
X21095791Y-13623226D01*
X21110077Y-13651797D01*
X21110077Y-13680369D01*
X21095791Y-13723226D01*
X20924363Y-13894654D01*
X21110077Y-13894654D01*
X21295791Y-13594654D02*
X21324363Y-13594654D01*
X21352934Y-13608940D01*
X21367220Y-13623226D01*
X21381506Y-13651797D01*
X21395791Y-13708940D01*
X21395791Y-13780369D01*
X21381506Y-13837511D01*
X21367220Y-13866083D01*
X21352934Y-13880369D01*
X21324363Y-13894654D01*
X21295791Y-13894654D01*
X21267220Y-13880369D01*
X21252934Y-13866083D01*
X21238648Y-13837511D01*
X21224363Y-13780369D01*
X21224363Y-13708940D01*
X21238648Y-13651797D01*
X21252934Y-13623226D01*
X21267220Y-13608940D01*
X21295791Y-13594654D01*
X21752934Y-13894654D02*
X21752934Y-13594654D01*
X21881506Y-13894654D02*
X21881506Y-13737511D01*
X21867220Y-13708940D01*
X21838648Y-13694654D01*
X21795791Y-13694654D01*
X21767220Y-13708940D01*
X21752934Y-13723226D01*
X22067220Y-13894654D02*
X22038648Y-13880369D01*
X22024363Y-13866083D01*
X22010077Y-13837511D01*
X22010077Y-13751797D01*
X22024363Y-13723226D01*
X22038648Y-13708940D01*
X22067220Y-13694654D01*
X22110077Y-13694654D01*
X22138648Y-13708940D01*
X22152934Y-13723226D01*
X22167220Y-13751797D01*
X22167220Y-13837511D01*
X22152934Y-13866083D01*
X22138648Y-13880369D01*
X22110077Y-13894654D01*
X22067220Y-13894654D01*
X22338648Y-13894654D02*
X22310077Y-13880369D01*
X22295791Y-13851797D01*
X22295791Y-13594654D01*
X22567220Y-13880369D02*
X22538648Y-13894654D01*
X22481506Y-13894654D01*
X22452934Y-13880369D01*
X22438648Y-13851797D01*
X22438648Y-13737511D01*
X22452934Y-13708940D01*
X22481506Y-13694654D01*
X22538648Y-13694654D01*
X22567220Y-13708940D01*
X22581506Y-13737511D01*
X22581506Y-13766083D01*
X22438648Y-13794654D01*
X22695791Y-13880369D02*
X22724363Y-13894654D01*
X22781506Y-13894654D01*
X22810077Y-13880369D01*
X22824363Y-13851797D01*
X22824363Y-13837511D01*
X22810077Y-13808940D01*
X22781506Y-13794654D01*
X22738648Y-13794654D01*
X22710077Y-13780369D01*
X22695791Y-13751797D01*
X22695791Y-13737511D01*
X22710077Y-13708940D01*
X22738648Y-13694654D01*
X22781506Y-13694654D01*
X22810077Y-13708940D01*
X22924363Y-14008940D02*
X22938648Y-13994654D01*
X22967220Y-13951797D01*
X22981506Y-13923226D01*
X22995791Y-13880369D01*
X23010077Y-13808940D01*
X23010077Y-13751797D01*
X22995791Y-13680369D01*
X22981506Y-13637511D01*
X22967220Y-13608940D01*
X22938648Y-13566083D01*
X22924363Y-13551797D01*
X16167220Y-14154940D02*
G75*
G03X16167220Y-14154940I-50000J0D01*
G01*
X16595791Y-14290654D02*
X16424363Y-14290654D01*
X16510077Y-14290654D02*
X16510077Y-13990654D01*
X16481506Y-14033511D01*
X16452934Y-14062083D01*
X16424363Y-14076369D01*
X16724363Y-14262083D02*
X16738648Y-14276369D01*
X16724363Y-14290654D01*
X16710077Y-14276369D01*
X16724363Y-14262083D01*
X16724363Y-14290654D01*
X16924363Y-13990654D02*
X16952934Y-13990654D01*
X16981506Y-14004940D01*
X16995791Y-14019226D01*
X17010077Y-14047797D01*
X17024363Y-14104940D01*
X17024363Y-14176369D01*
X17010077Y-14233511D01*
X16995791Y-14262083D01*
X16981506Y-14276369D01*
X16952934Y-14290654D01*
X16924363Y-14290654D01*
X16895791Y-14276369D01*
X16881506Y-14262083D01*
X16867220Y-14233511D01*
X16852934Y-14176369D01*
X16852934Y-14104940D01*
X16867220Y-14047797D01*
X16881506Y-14019226D01*
X16895791Y-14004940D01*
X16924363Y-13990654D01*
X17210077Y-13990654D02*
X17238649Y-13990654D01*
X17267220Y-14004940D01*
X17281506Y-14019226D01*
X17295791Y-14047797D01*
X17310077Y-14104940D01*
X17310077Y-14176369D01*
X17295791Y-14233511D01*
X17281506Y-14262083D01*
X17267220Y-14276369D01*
X17238649Y-14290654D01*
X17210077Y-14290654D01*
X17181506Y-14276369D01*
X17167220Y-14262083D01*
X17152934Y-14233511D01*
X17138649Y-14176369D01*
X17138649Y-14104940D01*
X17152934Y-14047797D01*
X17167220Y-14019226D01*
X17181506Y-14004940D01*
X17210077Y-13990654D01*
X17438649Y-14290654D02*
X17438649Y-14090654D01*
X17438649Y-14119226D02*
X17452934Y-14104940D01*
X17481506Y-14090654D01*
X17524363Y-14090654D01*
X17552934Y-14104940D01*
X17567220Y-14133511D01*
X17567220Y-14290654D01*
X17567220Y-14133511D02*
X17581506Y-14104940D01*
X17610077Y-14090654D01*
X17652934Y-14090654D01*
X17681506Y-14104940D01*
X17695791Y-14133511D01*
X17695791Y-14290654D01*
X17838649Y-14290654D02*
X17838649Y-14090654D01*
X17838649Y-14119226D02*
X17852934Y-14104940D01*
X17881506Y-14090654D01*
X17924363Y-14090654D01*
X17952934Y-14104940D01*
X17967220Y-14133511D01*
X17967220Y-14290654D01*
X17967220Y-14133511D02*
X17981506Y-14104940D01*
X18010077Y-14090654D01*
X18052934Y-14090654D01*
X18081506Y-14104940D01*
X18095791Y-14133511D01*
X18095791Y-14290654D01*
X18681506Y-13976369D02*
X18424363Y-14362083D01*
X19067220Y-13990654D02*
X19095791Y-13990654D01*
X19124363Y-14004940D01*
X19138648Y-14019226D01*
X19152934Y-14047797D01*
X19167220Y-14104940D01*
X19167220Y-14176369D01*
X19152934Y-14233511D01*
X19138648Y-14262083D01*
X19124363Y-14276369D01*
X19095791Y-14290654D01*
X19067220Y-14290654D01*
X19038648Y-14276369D01*
X19024363Y-14262083D01*
X19010077Y-14233511D01*
X18995791Y-14176369D01*
X18995791Y-14104940D01*
X19010077Y-14047797D01*
X19024363Y-14019226D01*
X19038648Y-14004940D01*
X19067220Y-13990654D01*
X19295791Y-14262083D02*
X19310077Y-14276369D01*
X19295791Y-14290654D01*
X19281506Y-14276369D01*
X19295791Y-14262083D01*
X19295791Y-14290654D01*
X19495791Y-13990654D02*
X19524363Y-13990654D01*
X19552934Y-14004940D01*
X19567220Y-14019226D01*
X19581506Y-14047797D01*
X19595791Y-14104940D01*
X19595791Y-14176369D01*
X19581506Y-14233511D01*
X19567220Y-14262083D01*
X19552934Y-14276369D01*
X19524363Y-14290654D01*
X19495791Y-14290654D01*
X19467220Y-14276369D01*
X19452934Y-14262083D01*
X19438648Y-14233511D01*
X19424363Y-14176369D01*
X19424363Y-14104940D01*
X19438648Y-14047797D01*
X19452934Y-14019226D01*
X19467220Y-14004940D01*
X19495791Y-13990654D01*
X19695791Y-13990654D02*
X19881506Y-13990654D01*
X19781506Y-14104940D01*
X19824363Y-14104940D01*
X19852934Y-14119226D01*
X19867220Y-14133511D01*
X19881506Y-14162083D01*
X19881506Y-14233511D01*
X19867220Y-14262083D01*
X19852934Y-14276369D01*
X19824363Y-14290654D01*
X19738648Y-14290654D01*
X19710077Y-14276369D01*
X19695791Y-14262083D01*
X20024363Y-14290654D02*
X20081506Y-14290654D01*
X20110077Y-14276369D01*
X20124363Y-14262083D01*
X20152934Y-14219226D01*
X20167220Y-14162083D01*
X20167220Y-14047797D01*
X20152934Y-14019226D01*
X20138648Y-14004940D01*
X20110077Y-13990654D01*
X20052934Y-13990654D01*
X20024363Y-14004940D01*
X20010077Y-14019226D01*
X19995791Y-14047797D01*
X19995791Y-14119226D01*
X20010077Y-14147797D01*
X20024363Y-14162083D01*
X20052934Y-14176369D01*
X20110077Y-14176369D01*
X20138648Y-14162083D01*
X20152934Y-14147797D01*
X20167220Y-14119226D01*
X20281506Y-13990654D02*
X20281506Y-14047797D01*
X20395791Y-13990654D02*
X20395791Y-14047797D01*
X20838648Y-14404940D02*
X20824363Y-14390654D01*
X20795791Y-14347797D01*
X20781506Y-14319226D01*
X20767220Y-14276369D01*
X20752934Y-14204940D01*
X20752934Y-14147797D01*
X20767220Y-14076369D01*
X20781506Y-14033511D01*
X20795791Y-14004940D01*
X20824363Y-13962083D01*
X20838648Y-13947797D01*
X21081506Y-13990654D02*
X21024363Y-13990654D01*
X20995791Y-14004940D01*
X20981506Y-14019226D01*
X20952934Y-14062083D01*
X20938648Y-14119226D01*
X20938648Y-14233511D01*
X20952934Y-14262083D01*
X20967220Y-14276369D01*
X20995791Y-14290654D01*
X21052934Y-14290654D01*
X21081506Y-14276369D01*
X21095791Y-14262083D01*
X21110077Y-14233511D01*
X21110077Y-14162083D01*
X21095791Y-14133511D01*
X21081506Y-14119226D01*
X21052934Y-14104940D01*
X20995791Y-14104940D01*
X20967220Y-14119226D01*
X20952934Y-14133511D01*
X20938648Y-14162083D01*
X21295791Y-13990654D02*
X21324363Y-13990654D01*
X21352934Y-14004940D01*
X21367220Y-14019226D01*
X21381506Y-14047797D01*
X21395791Y-14104940D01*
X21395791Y-14176369D01*
X21381506Y-14233511D01*
X21367220Y-14262083D01*
X21352934Y-14276369D01*
X21324363Y-14290654D01*
X21295791Y-14290654D01*
X21267220Y-14276369D01*
X21252934Y-14262083D01*
X21238648Y-14233511D01*
X21224363Y-14176369D01*
X21224363Y-14104940D01*
X21238648Y-14047797D01*
X21252934Y-14019226D01*
X21267220Y-14004940D01*
X21295791Y-13990654D01*
X21752934Y-14290654D02*
X21752934Y-13990654D01*
X21881506Y-14290654D02*
X21881506Y-14133511D01*
X21867220Y-14104940D01*
X21838648Y-14090654D01*
X21795791Y-14090654D01*
X21767220Y-14104940D01*
X21752934Y-14119226D01*
X22067220Y-14290654D02*
X22038648Y-14276369D01*
X22024363Y-14262083D01*
X22010077Y-14233511D01*
X22010077Y-14147797D01*
X22024363Y-14119226D01*
X22038648Y-14104940D01*
X22067220Y-14090654D01*
X22110077Y-14090654D01*
X22138648Y-14104940D01*
X22152934Y-14119226D01*
X22167220Y-14147797D01*
X22167220Y-14233511D01*
X22152934Y-14262083D01*
X22138648Y-14276369D01*
X22110077Y-14290654D01*
X22067220Y-14290654D01*
X22338648Y-14290654D02*
X22310077Y-14276369D01*
X22295791Y-14247797D01*
X22295791Y-13990654D01*
X22567220Y-14276369D02*
X22538648Y-14290654D01*
X22481506Y-14290654D01*
X22452934Y-14276369D01*
X22438648Y-14247797D01*
X22438648Y-14133511D01*
X22452934Y-14104940D01*
X22481506Y-14090654D01*
X22538648Y-14090654D01*
X22567220Y-14104940D01*
X22581506Y-14133511D01*
X22581506Y-14162083D01*
X22438648Y-14190654D01*
X22695791Y-14276369D02*
X22724363Y-14290654D01*
X22781506Y-14290654D01*
X22810077Y-14276369D01*
X22824363Y-14247797D01*
X22824363Y-14233511D01*
X22810077Y-14204940D01*
X22781506Y-14190654D01*
X22738648Y-14190654D01*
X22710077Y-14176369D01*
X22695791Y-14147797D01*
X22695791Y-14133511D01*
X22710077Y-14104940D01*
X22738648Y-14090654D01*
X22781506Y-14090654D01*
X22810077Y-14104940D01*
X22924363Y-14404940D02*
X22938648Y-14390654D01*
X22967220Y-14347797D01*
X22981506Y-14319226D01*
X22995791Y-14276369D01*
X23010077Y-14204940D01*
X23010077Y-14147797D01*
X22995791Y-14076369D01*
X22981506Y-14033511D01*
X22967220Y-14004940D01*
X22938648Y-13962083D01*
X22924363Y-13947797D01*
X16117182Y-14500902D02*
X16117182Y-14600978D01*
X16067144Y-14550940D02*
X16167220Y-14550940D01*
X16595791Y-14686654D02*
X16424363Y-14686654D01*
X16510077Y-14686654D02*
X16510077Y-14386654D01*
X16481506Y-14429511D01*
X16452934Y-14458083D01*
X16424363Y-14472369D01*
X16724363Y-14658083D02*
X16738648Y-14672369D01*
X16724363Y-14686654D01*
X16710077Y-14672369D01*
X16724363Y-14658083D01*
X16724363Y-14686654D01*
X16924363Y-14386654D02*
X16952934Y-14386654D01*
X16981506Y-14400940D01*
X16995791Y-14415226D01*
X17010077Y-14443797D01*
X17024363Y-14500940D01*
X17024363Y-14572369D01*
X17010077Y-14629511D01*
X16995791Y-14658083D01*
X16981506Y-14672369D01*
X16952934Y-14686654D01*
X16924363Y-14686654D01*
X16895791Y-14672369D01*
X16881506Y-14658083D01*
X16867220Y-14629511D01*
X16852934Y-14572369D01*
X16852934Y-14500940D01*
X16867220Y-14443797D01*
X16881506Y-14415226D01*
X16895791Y-14400940D01*
X16924363Y-14386654D01*
X17210077Y-14386654D02*
X17238649Y-14386654D01*
X17267220Y-14400940D01*
X17281506Y-14415226D01*
X17295791Y-14443797D01*
X17310077Y-14500940D01*
X17310077Y-14572369D01*
X17295791Y-14629511D01*
X17281506Y-14658083D01*
X17267220Y-14672369D01*
X17238649Y-14686654D01*
X17210077Y-14686654D01*
X17181506Y-14672369D01*
X17167220Y-14658083D01*
X17152934Y-14629511D01*
X17138649Y-14572369D01*
X17138649Y-14500940D01*
X17152934Y-14443797D01*
X17167220Y-14415226D01*
X17181506Y-14400940D01*
X17210077Y-14386654D01*
X17438649Y-14686654D02*
X17438649Y-14486654D01*
X17438649Y-14515226D02*
X17452934Y-14500940D01*
X17481506Y-14486654D01*
X17524363Y-14486654D01*
X17552934Y-14500940D01*
X17567220Y-14529511D01*
X17567220Y-14686654D01*
X17567220Y-14529511D02*
X17581506Y-14500940D01*
X17610077Y-14486654D01*
X17652934Y-14486654D01*
X17681506Y-14500940D01*
X17695791Y-14529511D01*
X17695791Y-14686654D01*
X17838649Y-14686654D02*
X17838649Y-14486654D01*
X17838649Y-14515226D02*
X17852934Y-14500940D01*
X17881506Y-14486654D01*
X17924363Y-14486654D01*
X17952934Y-14500940D01*
X17967220Y-14529511D01*
X17967220Y-14686654D01*
X17967220Y-14529511D02*
X17981506Y-14500940D01*
X18010077Y-14486654D01*
X18052934Y-14486654D01*
X18081506Y-14500940D01*
X18095791Y-14529511D01*
X18095791Y-14686654D01*
X18681506Y-14372369D02*
X18424363Y-14758083D01*
X19067220Y-14386654D02*
X19095791Y-14386654D01*
X19124363Y-14400940D01*
X19138648Y-14415226D01*
X19152934Y-14443797D01*
X19167220Y-14500940D01*
X19167220Y-14572369D01*
X19152934Y-14629511D01*
X19138648Y-14658083D01*
X19124363Y-14672369D01*
X19095791Y-14686654D01*
X19067220Y-14686654D01*
X19038648Y-14672369D01*
X19024363Y-14658083D01*
X19010077Y-14629511D01*
X18995791Y-14572369D01*
X18995791Y-14500940D01*
X19010077Y-14443797D01*
X19024363Y-14415226D01*
X19038648Y-14400940D01*
X19067220Y-14386654D01*
X19295791Y-14658083D02*
X19310077Y-14672369D01*
X19295791Y-14686654D01*
X19281506Y-14672369D01*
X19295791Y-14658083D01*
X19295791Y-14686654D01*
X19495791Y-14386654D02*
X19524363Y-14386654D01*
X19552934Y-14400940D01*
X19567220Y-14415226D01*
X19581506Y-14443797D01*
X19595791Y-14500940D01*
X19595791Y-14572369D01*
X19581506Y-14629511D01*
X19567220Y-14658083D01*
X19552934Y-14672369D01*
X19524363Y-14686654D01*
X19495791Y-14686654D01*
X19467220Y-14672369D01*
X19452934Y-14658083D01*
X19438648Y-14629511D01*
X19424363Y-14572369D01*
X19424363Y-14500940D01*
X19438648Y-14443797D01*
X19452934Y-14415226D01*
X19467220Y-14400940D01*
X19495791Y-14386654D01*
X19695791Y-14386654D02*
X19881506Y-14386654D01*
X19781506Y-14500940D01*
X19824363Y-14500940D01*
X19852934Y-14515226D01*
X19867220Y-14529511D01*
X19881506Y-14558083D01*
X19881506Y-14629511D01*
X19867220Y-14658083D01*
X19852934Y-14672369D01*
X19824363Y-14686654D01*
X19738648Y-14686654D01*
X19710077Y-14672369D01*
X19695791Y-14658083D01*
X20024363Y-14686654D02*
X20081506Y-14686654D01*
X20110077Y-14672369D01*
X20124363Y-14658083D01*
X20152934Y-14615226D01*
X20167220Y-14558083D01*
X20167220Y-14443797D01*
X20152934Y-14415226D01*
X20138648Y-14400940D01*
X20110077Y-14386654D01*
X20052934Y-14386654D01*
X20024363Y-14400940D01*
X20010077Y-14415226D01*
X19995791Y-14443797D01*
X19995791Y-14515226D01*
X20010077Y-14543797D01*
X20024363Y-14558083D01*
X20052934Y-14572369D01*
X20110077Y-14572369D01*
X20138648Y-14558083D01*
X20152934Y-14543797D01*
X20167220Y-14515226D01*
X20281506Y-14386654D02*
X20281506Y-14443797D01*
X20395791Y-14386654D02*
X20395791Y-14443797D01*
X20838648Y-14800940D02*
X20824363Y-14786654D01*
X20795791Y-14743797D01*
X20781506Y-14715226D01*
X20767220Y-14672369D01*
X20752934Y-14600940D01*
X20752934Y-14543797D01*
X20767220Y-14472369D01*
X20781506Y-14429511D01*
X20795791Y-14400940D01*
X20824363Y-14358083D01*
X20838648Y-14343797D01*
X21110077Y-14686654D02*
X20938648Y-14686654D01*
X21024363Y-14686654D02*
X21024363Y-14386654D01*
X20995791Y-14429511D01*
X20967220Y-14458083D01*
X20938648Y-14472369D01*
X21367220Y-14386654D02*
X21310077Y-14386654D01*
X21281506Y-14400940D01*
X21267220Y-14415226D01*
X21238648Y-14458083D01*
X21224363Y-14515226D01*
X21224363Y-14629511D01*
X21238648Y-14658083D01*
X21252934Y-14672369D01*
X21281506Y-14686654D01*
X21338648Y-14686654D01*
X21367220Y-14672369D01*
X21381506Y-14658083D01*
X21395791Y-14629511D01*
X21395791Y-14558083D01*
X21381506Y-14529511D01*
X21367220Y-14515226D01*
X21338648Y-14500940D01*
X21281506Y-14500940D01*
X21252934Y-14515226D01*
X21238648Y-14529511D01*
X21224363Y-14558083D01*
X21752934Y-14686654D02*
X21752934Y-14386654D01*
X21881506Y-14686654D02*
X21881506Y-14529511D01*
X21867220Y-14500940D01*
X21838648Y-14486654D01*
X21795791Y-14486654D01*
X21767220Y-14500940D01*
X21752934Y-14515226D01*
X22067220Y-14686654D02*
X22038648Y-14672369D01*
X22024363Y-14658083D01*
X22010077Y-14629511D01*
X22010077Y-14543797D01*
X22024363Y-14515226D01*
X22038648Y-14500940D01*
X22067220Y-14486654D01*
X22110077Y-14486654D01*
X22138648Y-14500940D01*
X22152934Y-14515226D01*
X22167220Y-14543797D01*
X22167220Y-14629511D01*
X22152934Y-14658083D01*
X22138648Y-14672369D01*
X22110077Y-14686654D01*
X22067220Y-14686654D01*
X22338648Y-14686654D02*
X22310077Y-14672369D01*
X22295791Y-14643797D01*
X22295791Y-14386654D01*
X22567220Y-14672369D02*
X22538648Y-14686654D01*
X22481506Y-14686654D01*
X22452934Y-14672369D01*
X22438648Y-14643797D01*
X22438648Y-14529511D01*
X22452934Y-14500940D01*
X22481506Y-14486654D01*
X22538648Y-14486654D01*
X22567220Y-14500940D01*
X22581506Y-14529511D01*
X22581506Y-14558083D01*
X22438648Y-14586654D01*
X22695791Y-14672369D02*
X22724363Y-14686654D01*
X22781506Y-14686654D01*
X22810077Y-14672369D01*
X22824363Y-14643797D01*
X22824363Y-14629511D01*
X22810077Y-14600940D01*
X22781506Y-14586654D01*
X22738648Y-14586654D01*
X22710077Y-14572369D01*
X22695791Y-14543797D01*
X22695791Y-14529511D01*
X22710077Y-14500940D01*
X22738648Y-14486654D01*
X22781506Y-14486654D01*
X22810077Y-14500940D01*
X22924363Y-14800940D02*
X22938648Y-14786654D01*
X22967220Y-14743797D01*
X22981506Y-14715226D01*
X22995791Y-14672369D01*
X23010077Y-14600940D01*
X23010077Y-14543797D01*
X22995791Y-14472369D01*
X22981506Y-14429511D01*
X22967220Y-14400940D01*
X22938648Y-14358083D01*
X22924363Y-14343797D01*
X16147450Y-14994670D02*
X16147450Y-14899210D01*
X16051990Y-14899210D01*
X16051990Y-14994670D01*
X16147450Y-14994670D01*
X16595791Y-15082654D02*
X16424363Y-15082654D01*
X16510077Y-15082654D02*
X16510077Y-14782654D01*
X16481506Y-14825511D01*
X16452934Y-14854083D01*
X16424363Y-14868369D01*
X16724363Y-15054083D02*
X16738648Y-15068369D01*
X16724363Y-15082654D01*
X16710077Y-15068369D01*
X16724363Y-15054083D01*
X16724363Y-15082654D01*
X16838648Y-14782654D02*
X17024363Y-14782654D01*
X16924363Y-14896940D01*
X16967220Y-14896940D01*
X16995791Y-14911226D01*
X17010077Y-14925511D01*
X17024363Y-14954083D01*
X17024363Y-15025511D01*
X17010077Y-15054083D01*
X16995791Y-15068369D01*
X16967220Y-15082654D01*
X16881506Y-15082654D01*
X16852934Y-15068369D01*
X16838648Y-15054083D01*
X17295791Y-14782654D02*
X17152934Y-14782654D01*
X17138649Y-14925511D01*
X17152934Y-14911226D01*
X17181506Y-14896940D01*
X17252934Y-14896940D01*
X17281506Y-14911226D01*
X17295791Y-14925511D01*
X17310077Y-14954083D01*
X17310077Y-15025511D01*
X17295791Y-15054083D01*
X17281506Y-15068369D01*
X17252934Y-15082654D01*
X17181506Y-15082654D01*
X17152934Y-15068369D01*
X17138649Y-15054083D01*
X17438649Y-15082654D02*
X17438649Y-14882654D01*
X17438649Y-14911226D02*
X17452934Y-14896940D01*
X17481506Y-14882654D01*
X17524363Y-14882654D01*
X17552934Y-14896940D01*
X17567220Y-14925511D01*
X17567220Y-15082654D01*
X17567220Y-14925511D02*
X17581506Y-14896940D01*
X17610077Y-14882654D01*
X17652934Y-14882654D01*
X17681506Y-14896940D01*
X17695791Y-14925511D01*
X17695791Y-15082654D01*
X17838649Y-15082654D02*
X17838649Y-14882654D01*
X17838649Y-14911226D02*
X17852934Y-14896940D01*
X17881506Y-14882654D01*
X17924363Y-14882654D01*
X17952934Y-14896940D01*
X17967220Y-14925511D01*
X17967220Y-15082654D01*
X17967220Y-14925511D02*
X17981506Y-14896940D01*
X18010077Y-14882654D01*
X18052934Y-14882654D01*
X18081506Y-14896940D01*
X18095791Y-14925511D01*
X18095791Y-15082654D01*
X18681506Y-14768369D02*
X18424363Y-15154083D01*
X19067220Y-14782654D02*
X19095791Y-14782654D01*
X19124363Y-14796940D01*
X19138648Y-14811226D01*
X19152934Y-14839797D01*
X19167220Y-14896940D01*
X19167220Y-14968369D01*
X19152934Y-15025511D01*
X19138648Y-15054083D01*
X19124363Y-15068369D01*
X19095791Y-15082654D01*
X19067220Y-15082654D01*
X19038648Y-15068369D01*
X19024363Y-15054083D01*
X19010077Y-15025511D01*
X18995791Y-14968369D01*
X18995791Y-14896940D01*
X19010077Y-14839797D01*
X19024363Y-14811226D01*
X19038648Y-14796940D01*
X19067220Y-14782654D01*
X19295791Y-15054083D02*
X19310077Y-15068369D01*
X19295791Y-15082654D01*
X19281506Y-15068369D01*
X19295791Y-15054083D01*
X19295791Y-15082654D01*
X19495791Y-14782654D02*
X19524363Y-14782654D01*
X19552934Y-14796940D01*
X19567220Y-14811226D01*
X19581506Y-14839797D01*
X19595791Y-14896940D01*
X19595791Y-14968369D01*
X19581506Y-15025511D01*
X19567220Y-15054083D01*
X19552934Y-15068369D01*
X19524363Y-15082654D01*
X19495791Y-15082654D01*
X19467220Y-15068369D01*
X19452934Y-15054083D01*
X19438648Y-15025511D01*
X19424363Y-14968369D01*
X19424363Y-14896940D01*
X19438648Y-14839797D01*
X19452934Y-14811226D01*
X19467220Y-14796940D01*
X19495791Y-14782654D01*
X19867220Y-14782654D02*
X19724363Y-14782654D01*
X19710077Y-14925511D01*
X19724363Y-14911226D01*
X19752934Y-14896940D01*
X19824363Y-14896940D01*
X19852934Y-14911226D01*
X19867220Y-14925511D01*
X19881506Y-14954083D01*
X19881506Y-15025511D01*
X19867220Y-15054083D01*
X19852934Y-15068369D01*
X19824363Y-15082654D01*
X19752934Y-15082654D01*
X19724363Y-15068369D01*
X19710077Y-15054083D01*
X19981506Y-14782654D02*
X20167220Y-14782654D01*
X20067220Y-14896940D01*
X20110077Y-14896940D01*
X20138648Y-14911226D01*
X20152934Y-14925511D01*
X20167220Y-14954083D01*
X20167220Y-15025511D01*
X20152934Y-15054083D01*
X20138648Y-15068369D01*
X20110077Y-15082654D01*
X20024363Y-15082654D01*
X19995791Y-15068369D01*
X19981506Y-15054083D01*
X20281506Y-14782654D02*
X20281506Y-14839797D01*
X20395791Y-14782654D02*
X20395791Y-14839797D01*
X20838648Y-15196940D02*
X20824363Y-15182654D01*
X20795791Y-15139797D01*
X20781506Y-15111226D01*
X20767220Y-15068369D01*
X20752934Y-14996940D01*
X20752934Y-14939797D01*
X20767220Y-14868369D01*
X20781506Y-14825511D01*
X20795791Y-14796940D01*
X20824363Y-14754083D01*
X20838648Y-14739797D01*
X21110077Y-15082654D02*
X20938648Y-15082654D01*
X21024363Y-15082654D02*
X21024363Y-14782654D01*
X20995791Y-14825511D01*
X20967220Y-14854083D01*
X20938648Y-14868369D01*
X21367220Y-14782654D02*
X21310077Y-14782654D01*
X21281506Y-14796940D01*
X21267220Y-14811226D01*
X21238648Y-14854083D01*
X21224363Y-14911226D01*
X21224363Y-15025511D01*
X21238648Y-15054083D01*
X21252934Y-15068369D01*
X21281506Y-15082654D01*
X21338648Y-15082654D01*
X21367220Y-15068369D01*
X21381506Y-15054083D01*
X21395791Y-15025511D01*
X21395791Y-14954083D01*
X21381506Y-14925511D01*
X21367220Y-14911226D01*
X21338648Y-14896940D01*
X21281506Y-14896940D01*
X21252934Y-14911226D01*
X21238648Y-14925511D01*
X21224363Y-14954083D01*
X21752934Y-15082654D02*
X21752934Y-14782654D01*
X21881506Y-15082654D02*
X21881506Y-14925511D01*
X21867220Y-14896940D01*
X21838648Y-14882654D01*
X21795791Y-14882654D01*
X21767220Y-14896940D01*
X21752934Y-14911226D01*
X22067220Y-15082654D02*
X22038648Y-15068369D01*
X22024363Y-15054083D01*
X22010077Y-15025511D01*
X22010077Y-14939797D01*
X22024363Y-14911226D01*
X22038648Y-14896940D01*
X22067220Y-14882654D01*
X22110077Y-14882654D01*
X22138648Y-14896940D01*
X22152934Y-14911226D01*
X22167220Y-14939797D01*
X22167220Y-15025511D01*
X22152934Y-15054083D01*
X22138648Y-15068369D01*
X22110077Y-15082654D01*
X22067220Y-15082654D01*
X22338648Y-15082654D02*
X22310077Y-15068369D01*
X22295791Y-15039797D01*
X22295791Y-14782654D01*
X22567220Y-15068369D02*
X22538648Y-15082654D01*
X22481506Y-15082654D01*
X22452934Y-15068369D01*
X22438648Y-15039797D01*
X22438648Y-14925511D01*
X22452934Y-14896940D01*
X22481506Y-14882654D01*
X22538648Y-14882654D01*
X22567220Y-14896940D01*
X22581506Y-14925511D01*
X22581506Y-14954083D01*
X22438648Y-14982654D01*
X22695791Y-15068369D02*
X22724363Y-15082654D01*
X22781506Y-15082654D01*
X22810077Y-15068369D01*
X22824363Y-15039797D01*
X22824363Y-15025511D01*
X22810077Y-14996940D01*
X22781506Y-14982654D01*
X22738648Y-14982654D01*
X22710077Y-14968369D01*
X22695791Y-14939797D01*
X22695791Y-14925511D01*
X22710077Y-14896940D01*
X22738648Y-14882654D01*
X22781506Y-14882654D01*
X22810077Y-14896940D01*
X22924363Y-15196940D02*
X22938648Y-15182654D01*
X22967220Y-15139797D01*
X22981506Y-15111226D01*
X22995791Y-15068369D01*
X23010077Y-14996940D01*
X23010077Y-14939797D01*
X22995791Y-14868369D01*
X22981506Y-14825511D01*
X22967220Y-14796940D01*
X22938648Y-14754083D01*
X22924363Y-14739797D01*
X16091220Y-15418940D02*
X16167220Y-15342940D01*
X16091220Y-15266940D01*
X16015220Y-15342940D01*
X16091220Y-15418940D01*
X16595791Y-15478654D02*
X16424363Y-15478654D01*
X16510077Y-15478654D02*
X16510077Y-15178654D01*
X16481506Y-15221511D01*
X16452934Y-15250083D01*
X16424363Y-15264369D01*
X16724363Y-15450083D02*
X16738648Y-15464369D01*
X16724363Y-15478654D01*
X16710077Y-15464369D01*
X16724363Y-15450083D01*
X16724363Y-15478654D01*
X17010077Y-15178654D02*
X16867220Y-15178654D01*
X16852934Y-15321511D01*
X16867220Y-15307226D01*
X16895791Y-15292940D01*
X16967220Y-15292940D01*
X16995791Y-15307226D01*
X17010077Y-15321511D01*
X17024363Y-15350083D01*
X17024363Y-15421511D01*
X17010077Y-15450083D01*
X16995791Y-15464369D01*
X16967220Y-15478654D01*
X16895791Y-15478654D01*
X16867220Y-15464369D01*
X16852934Y-15450083D01*
X17138649Y-15207226D02*
X17152934Y-15192940D01*
X17181506Y-15178654D01*
X17252934Y-15178654D01*
X17281506Y-15192940D01*
X17295791Y-15207226D01*
X17310077Y-15235797D01*
X17310077Y-15264369D01*
X17295791Y-15307226D01*
X17124363Y-15478654D01*
X17310077Y-15478654D01*
X17438649Y-15478654D02*
X17438649Y-15278654D01*
X17438649Y-15307226D02*
X17452934Y-15292940D01*
X17481506Y-15278654D01*
X17524363Y-15278654D01*
X17552934Y-15292940D01*
X17567220Y-15321511D01*
X17567220Y-15478654D01*
X17567220Y-15321511D02*
X17581506Y-15292940D01*
X17610077Y-15278654D01*
X17652934Y-15278654D01*
X17681506Y-15292940D01*
X17695791Y-15321511D01*
X17695791Y-15478654D01*
X17838649Y-15478654D02*
X17838649Y-15278654D01*
X17838649Y-15307226D02*
X17852934Y-15292940D01*
X17881506Y-15278654D01*
X17924363Y-15278654D01*
X17952934Y-15292940D01*
X17967220Y-15321511D01*
X17967220Y-15478654D01*
X17967220Y-15321511D02*
X17981506Y-15292940D01*
X18010077Y-15278654D01*
X18052934Y-15278654D01*
X18081506Y-15292940D01*
X18095791Y-15321511D01*
X18095791Y-15478654D01*
X18681506Y-15164369D02*
X18424363Y-15550083D01*
X19067220Y-15178654D02*
X19095791Y-15178654D01*
X19124363Y-15192940D01*
X19138648Y-15207226D01*
X19152934Y-15235797D01*
X19167220Y-15292940D01*
X19167220Y-15364369D01*
X19152934Y-15421511D01*
X19138648Y-15450083D01*
X19124363Y-15464369D01*
X19095791Y-15478654D01*
X19067220Y-15478654D01*
X19038648Y-15464369D01*
X19024363Y-15450083D01*
X19010077Y-15421511D01*
X18995791Y-15364369D01*
X18995791Y-15292940D01*
X19010077Y-15235797D01*
X19024363Y-15207226D01*
X19038648Y-15192940D01*
X19067220Y-15178654D01*
X19295791Y-15450083D02*
X19310077Y-15464369D01*
X19295791Y-15478654D01*
X19281506Y-15464369D01*
X19295791Y-15450083D01*
X19295791Y-15478654D01*
X19495791Y-15178654D02*
X19524363Y-15178654D01*
X19552934Y-15192940D01*
X19567220Y-15207226D01*
X19581506Y-15235797D01*
X19595791Y-15292940D01*
X19595791Y-15364369D01*
X19581506Y-15421511D01*
X19567220Y-15450083D01*
X19552934Y-15464369D01*
X19524363Y-15478654D01*
X19495791Y-15478654D01*
X19467220Y-15464369D01*
X19452934Y-15450083D01*
X19438648Y-15421511D01*
X19424363Y-15364369D01*
X19424363Y-15292940D01*
X19438648Y-15235797D01*
X19452934Y-15207226D01*
X19467220Y-15192940D01*
X19495791Y-15178654D01*
X19852934Y-15178654D02*
X19795791Y-15178654D01*
X19767220Y-15192940D01*
X19752934Y-15207226D01*
X19724363Y-15250083D01*
X19710077Y-15307226D01*
X19710077Y-15421511D01*
X19724363Y-15450083D01*
X19738648Y-15464369D01*
X19767220Y-15478654D01*
X19824363Y-15478654D01*
X19852934Y-15464369D01*
X19867220Y-15450083D01*
X19881506Y-15421511D01*
X19881506Y-15350083D01*
X19867220Y-15321511D01*
X19852934Y-15307226D01*
X19824363Y-15292940D01*
X19767220Y-15292940D01*
X19738648Y-15307226D01*
X19724363Y-15321511D01*
X19710077Y-15350083D01*
X20067220Y-15178654D02*
X20095791Y-15178654D01*
X20124363Y-15192940D01*
X20138648Y-15207226D01*
X20152934Y-15235797D01*
X20167220Y-15292940D01*
X20167220Y-15364369D01*
X20152934Y-15421511D01*
X20138648Y-15450083D01*
X20124363Y-15464369D01*
X20095791Y-15478654D01*
X20067220Y-15478654D01*
X20038648Y-15464369D01*
X20024363Y-15450083D01*
X20010077Y-15421511D01*
X19995791Y-15364369D01*
X19995791Y-15292940D01*
X20010077Y-15235797D01*
X20024363Y-15207226D01*
X20038648Y-15192940D01*
X20067220Y-15178654D01*
X20281506Y-15178654D02*
X20281506Y-15235797D01*
X20395791Y-15178654D02*
X20395791Y-15235797D01*
X20838648Y-15592940D02*
X20824363Y-15578654D01*
X20795791Y-15535797D01*
X20781506Y-15507226D01*
X20767220Y-15464369D01*
X20752934Y-15392940D01*
X20752934Y-15335797D01*
X20767220Y-15264369D01*
X20781506Y-15221511D01*
X20795791Y-15192940D01*
X20824363Y-15150083D01*
X20838648Y-15135797D01*
X20938648Y-15207226D02*
X20952934Y-15192940D01*
X20981506Y-15178654D01*
X21052934Y-15178654D01*
X21081506Y-15192940D01*
X21095791Y-15207226D01*
X21110077Y-15235797D01*
X21110077Y-15264369D01*
X21095791Y-15307226D01*
X20924363Y-15478654D01*
X21110077Y-15478654D01*
X21467220Y-15478654D02*
X21467220Y-15178654D01*
X21595791Y-15478654D02*
X21595791Y-15321511D01*
X21581506Y-15292940D01*
X21552934Y-15278654D01*
X21510077Y-15278654D01*
X21481506Y-15292940D01*
X21467220Y-15307226D01*
X21781506Y-15478654D02*
X21752934Y-15464369D01*
X21738648Y-15450083D01*
X21724363Y-15421511D01*
X21724363Y-15335797D01*
X21738648Y-15307226D01*
X21752934Y-15292940D01*
X21781506Y-15278654D01*
X21824363Y-15278654D01*
X21852934Y-15292940D01*
X21867220Y-15307226D01*
X21881506Y-15335797D01*
X21881506Y-15421511D01*
X21867220Y-15450083D01*
X21852934Y-15464369D01*
X21824363Y-15478654D01*
X21781506Y-15478654D01*
X22052934Y-15478654D02*
X22024363Y-15464369D01*
X22010077Y-15435797D01*
X22010077Y-15178654D01*
X22281506Y-15464369D02*
X22252934Y-15478654D01*
X22195791Y-15478654D01*
X22167220Y-15464369D01*
X22152934Y-15435797D01*
X22152934Y-15321511D01*
X22167220Y-15292940D01*
X22195791Y-15278654D01*
X22252934Y-15278654D01*
X22281506Y-15292940D01*
X22295791Y-15321511D01*
X22295791Y-15350083D01*
X22152934Y-15378654D01*
X22410077Y-15464369D02*
X22438648Y-15478654D01*
X22495791Y-15478654D01*
X22524363Y-15464369D01*
X22538648Y-15435797D01*
X22538648Y-15421511D01*
X22524363Y-15392940D01*
X22495791Y-15378654D01*
X22452934Y-15378654D01*
X22424363Y-15364369D01*
X22410077Y-15335797D01*
X22410077Y-15321511D01*
X22424363Y-15292940D01*
X22452934Y-15278654D01*
X22495791Y-15278654D01*
X22524363Y-15292940D01*
X22638648Y-15592940D02*
X22652934Y-15578654D01*
X22681506Y-15535797D01*
X22695791Y-15507226D01*
X22710077Y-15464369D01*
X22724363Y-15392940D01*
X22724363Y-15335797D01*
X22710077Y-15264369D01*
X22695791Y-15221511D01*
X22681506Y-15192940D01*
X22652934Y-15150083D01*
X22638648Y-15135797D01*
X16007220Y-15658940D02*
X16167220Y-15818940D01*
X16167220Y-15658940D02*
X16007220Y-15818940D01*
X16167220Y-15738940D02*
G75*
G03X16167220Y-15738940I-80000J0D01*
G01*
X16595791Y-15874654D02*
X16424363Y-15874654D01*
X16510077Y-15874654D02*
X16510077Y-15574654D01*
X16481506Y-15617511D01*
X16452934Y-15646083D01*
X16424363Y-15660369D01*
X16724363Y-15846083D02*
X16738648Y-15860369D01*
X16724363Y-15874654D01*
X16710077Y-15860369D01*
X16724363Y-15846083D01*
X16724363Y-15874654D01*
X16995791Y-15574654D02*
X16938648Y-15574654D01*
X16910077Y-15588940D01*
X16895791Y-15603226D01*
X16867220Y-15646083D01*
X16852934Y-15703226D01*
X16852934Y-15817511D01*
X16867220Y-15846083D01*
X16881506Y-15860369D01*
X16910077Y-15874654D01*
X16967220Y-15874654D01*
X16995791Y-15860369D01*
X17010077Y-15846083D01*
X17024363Y-15817511D01*
X17024363Y-15746083D01*
X17010077Y-15717511D01*
X16995791Y-15703226D01*
X16967220Y-15688940D01*
X16910077Y-15688940D01*
X16881506Y-15703226D01*
X16867220Y-15717511D01*
X16852934Y-15746083D01*
X17210077Y-15574654D02*
X17238649Y-15574654D01*
X17267220Y-15588940D01*
X17281506Y-15603226D01*
X17295791Y-15631797D01*
X17310077Y-15688940D01*
X17310077Y-15760369D01*
X17295791Y-15817511D01*
X17281506Y-15846083D01*
X17267220Y-15860369D01*
X17238649Y-15874654D01*
X17210077Y-15874654D01*
X17181506Y-15860369D01*
X17167220Y-15846083D01*
X17152934Y-15817511D01*
X17138649Y-15760369D01*
X17138649Y-15688940D01*
X17152934Y-15631797D01*
X17167220Y-15603226D01*
X17181506Y-15588940D01*
X17210077Y-15574654D01*
X17438649Y-15874654D02*
X17438649Y-15674654D01*
X17438649Y-15703226D02*
X17452934Y-15688940D01*
X17481506Y-15674654D01*
X17524363Y-15674654D01*
X17552934Y-15688940D01*
X17567220Y-15717511D01*
X17567220Y-15874654D01*
X17567220Y-15717511D02*
X17581506Y-15688940D01*
X17610077Y-15674654D01*
X17652934Y-15674654D01*
X17681506Y-15688940D01*
X17695791Y-15717511D01*
X17695791Y-15874654D01*
X17838649Y-15874654D02*
X17838649Y-15674654D01*
X17838649Y-15703226D02*
X17852934Y-15688940D01*
X17881506Y-15674654D01*
X17924363Y-15674654D01*
X17952934Y-15688940D01*
X17967220Y-15717511D01*
X17967220Y-15874654D01*
X17967220Y-15717511D02*
X17981506Y-15688940D01*
X18010077Y-15674654D01*
X18052934Y-15674654D01*
X18081506Y-15688940D01*
X18095791Y-15717511D01*
X18095791Y-15874654D01*
X18681506Y-15560369D02*
X18424363Y-15946083D01*
X19067220Y-15574654D02*
X19095791Y-15574654D01*
X19124363Y-15588940D01*
X19138648Y-15603226D01*
X19152934Y-15631797D01*
X19167220Y-15688940D01*
X19167220Y-15760369D01*
X19152934Y-15817511D01*
X19138648Y-15846083D01*
X19124363Y-15860369D01*
X19095791Y-15874654D01*
X19067220Y-15874654D01*
X19038648Y-15860369D01*
X19024363Y-15846083D01*
X19010077Y-15817511D01*
X18995791Y-15760369D01*
X18995791Y-15688940D01*
X19010077Y-15631797D01*
X19024363Y-15603226D01*
X19038648Y-15588940D01*
X19067220Y-15574654D01*
X19295791Y-15846083D02*
X19310077Y-15860369D01*
X19295791Y-15874654D01*
X19281506Y-15860369D01*
X19295791Y-15846083D01*
X19295791Y-15874654D01*
X19495791Y-15574654D02*
X19524363Y-15574654D01*
X19552934Y-15588940D01*
X19567220Y-15603226D01*
X19581506Y-15631797D01*
X19595791Y-15688940D01*
X19595791Y-15760369D01*
X19581506Y-15817511D01*
X19567220Y-15846083D01*
X19552934Y-15860369D01*
X19524363Y-15874654D01*
X19495791Y-15874654D01*
X19467220Y-15860369D01*
X19452934Y-15846083D01*
X19438648Y-15817511D01*
X19424363Y-15760369D01*
X19424363Y-15688940D01*
X19438648Y-15631797D01*
X19452934Y-15603226D01*
X19467220Y-15588940D01*
X19495791Y-15574654D01*
X19852934Y-15574654D02*
X19795791Y-15574654D01*
X19767220Y-15588940D01*
X19752934Y-15603226D01*
X19724363Y-15646083D01*
X19710077Y-15703226D01*
X19710077Y-15817511D01*
X19724363Y-15846083D01*
X19738648Y-15860369D01*
X19767220Y-15874654D01*
X19824363Y-15874654D01*
X19852934Y-15860369D01*
X19867220Y-15846083D01*
X19881506Y-15817511D01*
X19881506Y-15746083D01*
X19867220Y-15717511D01*
X19852934Y-15703226D01*
X19824363Y-15688940D01*
X19767220Y-15688940D01*
X19738648Y-15703226D01*
X19724363Y-15717511D01*
X19710077Y-15746083D01*
X19981506Y-15574654D02*
X20167220Y-15574654D01*
X20067220Y-15688940D01*
X20110077Y-15688940D01*
X20138648Y-15703226D01*
X20152934Y-15717511D01*
X20167220Y-15746083D01*
X20167220Y-15817511D01*
X20152934Y-15846083D01*
X20138648Y-15860369D01*
X20110077Y-15874654D01*
X20024363Y-15874654D01*
X19995791Y-15860369D01*
X19981506Y-15846083D01*
X20281506Y-15574654D02*
X20281506Y-15631797D01*
X20395791Y-15574654D02*
X20395791Y-15631797D01*
X20838648Y-15988940D02*
X20824363Y-15974654D01*
X20795791Y-15931797D01*
X20781506Y-15903226D01*
X20767220Y-15860369D01*
X20752934Y-15788940D01*
X20752934Y-15731797D01*
X20767220Y-15660369D01*
X20781506Y-15617511D01*
X20795791Y-15588940D01*
X20824363Y-15546083D01*
X20838648Y-15531797D01*
X20995791Y-15703226D02*
X20967220Y-15688940D01*
X20952934Y-15674654D01*
X20938648Y-15646083D01*
X20938648Y-15631797D01*
X20952934Y-15603226D01*
X20967220Y-15588940D01*
X20995791Y-15574654D01*
X21052934Y-15574654D01*
X21081506Y-15588940D01*
X21095791Y-15603226D01*
X21110077Y-15631797D01*
X21110077Y-15646083D01*
X21095791Y-15674654D01*
X21081506Y-15688940D01*
X21052934Y-15703226D01*
X20995791Y-15703226D01*
X20967220Y-15717511D01*
X20952934Y-15731797D01*
X20938648Y-15760369D01*
X20938648Y-15817511D01*
X20952934Y-15846083D01*
X20967220Y-15860369D01*
X20995791Y-15874654D01*
X21052934Y-15874654D01*
X21081506Y-15860369D01*
X21095791Y-15846083D01*
X21110077Y-15817511D01*
X21110077Y-15760369D01*
X21095791Y-15731797D01*
X21081506Y-15717511D01*
X21052934Y-15703226D01*
X21467220Y-15874654D02*
X21467220Y-15574654D01*
X21595791Y-15874654D02*
X21595791Y-15717511D01*
X21581506Y-15688940D01*
X21552934Y-15674654D01*
X21510077Y-15674654D01*
X21481506Y-15688940D01*
X21467220Y-15703226D01*
X21781506Y-15874654D02*
X21752934Y-15860369D01*
X21738648Y-15846083D01*
X21724363Y-15817511D01*
X21724363Y-15731797D01*
X21738648Y-15703226D01*
X21752934Y-15688940D01*
X21781506Y-15674654D01*
X21824363Y-15674654D01*
X21852934Y-15688940D01*
X21867220Y-15703226D01*
X21881506Y-15731797D01*
X21881506Y-15817511D01*
X21867220Y-15846083D01*
X21852934Y-15860369D01*
X21824363Y-15874654D01*
X21781506Y-15874654D01*
X22052934Y-15874654D02*
X22024363Y-15860369D01*
X22010077Y-15831797D01*
X22010077Y-15574654D01*
X22281506Y-15860369D02*
X22252934Y-15874654D01*
X22195791Y-15874654D01*
X22167220Y-15860369D01*
X22152934Y-15831797D01*
X22152934Y-15717511D01*
X22167220Y-15688940D01*
X22195791Y-15674654D01*
X22252934Y-15674654D01*
X22281506Y-15688940D01*
X22295791Y-15717511D01*
X22295791Y-15746083D01*
X22152934Y-15774654D01*
X22410077Y-15860369D02*
X22438648Y-15874654D01*
X22495791Y-15874654D01*
X22524363Y-15860369D01*
X22538648Y-15831797D01*
X22538648Y-15817511D01*
X22524363Y-15788940D01*
X22495791Y-15774654D01*
X22452934Y-15774654D01*
X22424363Y-15760369D01*
X22410077Y-15731797D01*
X22410077Y-15717511D01*
X22424363Y-15688940D01*
X22452934Y-15674654D01*
X22495791Y-15674654D01*
X22524363Y-15688940D01*
X22638648Y-15988940D02*
X22652934Y-15974654D01*
X22681506Y-15931797D01*
X22695791Y-15903226D01*
X22710077Y-15860369D01*
X22724363Y-15788940D01*
X22724363Y-15731797D01*
X22710077Y-15660369D01*
X22695791Y-15617511D01*
X22681506Y-15588940D01*
X22652934Y-15546083D01*
X22638648Y-15531797D01*
X15937220Y-16019940D02*
X16167220Y-16249940D01*
X16167220Y-16019940D02*
X15937220Y-16249940D01*
X16052220Y-16019940D02*
X16052220Y-16249940D01*
X15937220Y-16134940D02*
X16167220Y-16134940D01*
X16424363Y-15999226D02*
X16438648Y-15984940D01*
X16467220Y-15970654D01*
X16538648Y-15970654D01*
X16567220Y-15984940D01*
X16581506Y-15999226D01*
X16595791Y-16027797D01*
X16595791Y-16056369D01*
X16581506Y-16099226D01*
X16410077Y-16270654D01*
X16595791Y-16270654D01*
X16724363Y-16242083D02*
X16738648Y-16256369D01*
X16724363Y-16270654D01*
X16710077Y-16256369D01*
X16724363Y-16242083D01*
X16724363Y-16270654D01*
X16838648Y-15970654D02*
X17024363Y-15970654D01*
X16924363Y-16084940D01*
X16967220Y-16084940D01*
X16995791Y-16099226D01*
X17010077Y-16113511D01*
X17024363Y-16142083D01*
X17024363Y-16213511D01*
X17010077Y-16242083D01*
X16995791Y-16256369D01*
X16967220Y-16270654D01*
X16881506Y-16270654D01*
X16852934Y-16256369D01*
X16838648Y-16242083D01*
X17210077Y-15970654D02*
X17238649Y-15970654D01*
X17267220Y-15984940D01*
X17281506Y-15999226D01*
X17295791Y-16027797D01*
X17310077Y-16084940D01*
X17310077Y-16156369D01*
X17295791Y-16213511D01*
X17281506Y-16242083D01*
X17267220Y-16256369D01*
X17238649Y-16270654D01*
X17210077Y-16270654D01*
X17181506Y-16256369D01*
X17167220Y-16242083D01*
X17152934Y-16213511D01*
X17138649Y-16156369D01*
X17138649Y-16084940D01*
X17152934Y-16027797D01*
X17167220Y-15999226D01*
X17181506Y-15984940D01*
X17210077Y-15970654D01*
X17438649Y-16270654D02*
X17438649Y-16070654D01*
X17438649Y-16099226D02*
X17452934Y-16084940D01*
X17481506Y-16070654D01*
X17524363Y-16070654D01*
X17552934Y-16084940D01*
X17567220Y-16113511D01*
X17567220Y-16270654D01*
X17567220Y-16113511D02*
X17581506Y-16084940D01*
X17610077Y-16070654D01*
X17652934Y-16070654D01*
X17681506Y-16084940D01*
X17695791Y-16113511D01*
X17695791Y-16270654D01*
X17838649Y-16270654D02*
X17838649Y-16070654D01*
X17838649Y-16099226D02*
X17852934Y-16084940D01*
X17881506Y-16070654D01*
X17924363Y-16070654D01*
X17952934Y-16084940D01*
X17967220Y-16113511D01*
X17967220Y-16270654D01*
X17967220Y-16113511D02*
X17981506Y-16084940D01*
X18010077Y-16070654D01*
X18052934Y-16070654D01*
X18081506Y-16084940D01*
X18095791Y-16113511D01*
X18095791Y-16270654D01*
X18681506Y-15956369D02*
X18424363Y-16342083D01*
X19067220Y-15970654D02*
X19095791Y-15970654D01*
X19124363Y-15984940D01*
X19138648Y-15999226D01*
X19152934Y-16027797D01*
X19167220Y-16084940D01*
X19167220Y-16156369D01*
X19152934Y-16213511D01*
X19138648Y-16242083D01*
X19124363Y-16256369D01*
X19095791Y-16270654D01*
X19067220Y-16270654D01*
X19038648Y-16256369D01*
X19024363Y-16242083D01*
X19010077Y-16213511D01*
X18995791Y-16156369D01*
X18995791Y-16084940D01*
X19010077Y-16027797D01*
X19024363Y-15999226D01*
X19038648Y-15984940D01*
X19067220Y-15970654D01*
X19295791Y-16242083D02*
X19310077Y-16256369D01*
X19295791Y-16270654D01*
X19281506Y-16256369D01*
X19295791Y-16242083D01*
X19295791Y-16270654D01*
X19495791Y-15970654D02*
X19524363Y-15970654D01*
X19552934Y-15984940D01*
X19567220Y-15999226D01*
X19581506Y-16027797D01*
X19595791Y-16084940D01*
X19595791Y-16156369D01*
X19581506Y-16213511D01*
X19567220Y-16242083D01*
X19552934Y-16256369D01*
X19524363Y-16270654D01*
X19495791Y-16270654D01*
X19467220Y-16256369D01*
X19452934Y-16242083D01*
X19438648Y-16213511D01*
X19424363Y-16156369D01*
X19424363Y-16084940D01*
X19438648Y-16027797D01*
X19452934Y-15999226D01*
X19467220Y-15984940D01*
X19495791Y-15970654D01*
X19738648Y-16270654D02*
X19795791Y-16270654D01*
X19824363Y-16256369D01*
X19838648Y-16242083D01*
X19867220Y-16199226D01*
X19881506Y-16142083D01*
X19881506Y-16027797D01*
X19867220Y-15999226D01*
X19852934Y-15984940D01*
X19824363Y-15970654D01*
X19767220Y-15970654D01*
X19738648Y-15984940D01*
X19724363Y-15999226D01*
X19710077Y-16027797D01*
X19710077Y-16099226D01*
X19724363Y-16127797D01*
X19738648Y-16142083D01*
X19767220Y-16156369D01*
X19824363Y-16156369D01*
X19852934Y-16142083D01*
X19867220Y-16127797D01*
X19881506Y-16099226D01*
X20167220Y-16270654D02*
X19995791Y-16270654D01*
X20081506Y-16270654D02*
X20081506Y-15970654D01*
X20052934Y-16013511D01*
X20024363Y-16042083D01*
X19995791Y-16056369D01*
X20281506Y-15970654D02*
X20281506Y-16027797D01*
X20395791Y-15970654D02*
X20395791Y-16027797D01*
X20838648Y-16384940D02*
X20824363Y-16370654D01*
X20795791Y-16327797D01*
X20781506Y-16299226D01*
X20767220Y-16256369D01*
X20752934Y-16184940D01*
X20752934Y-16127797D01*
X20767220Y-16056369D01*
X20781506Y-16013511D01*
X20795791Y-15984940D01*
X20824363Y-15942083D01*
X20838648Y-15927797D01*
X21081506Y-16070654D02*
X21081506Y-16270654D01*
X21010077Y-15956369D02*
X20938648Y-16170654D01*
X21124363Y-16170654D01*
X21467220Y-16270654D02*
X21467220Y-15970654D01*
X21595791Y-16270654D02*
X21595791Y-16113511D01*
X21581506Y-16084940D01*
X21552934Y-16070654D01*
X21510077Y-16070654D01*
X21481506Y-16084940D01*
X21467220Y-16099226D01*
X21781506Y-16270654D02*
X21752934Y-16256369D01*
X21738648Y-16242083D01*
X21724363Y-16213511D01*
X21724363Y-16127797D01*
X21738648Y-16099226D01*
X21752934Y-16084940D01*
X21781506Y-16070654D01*
X21824363Y-16070654D01*
X21852934Y-16084940D01*
X21867220Y-16099226D01*
X21881506Y-16127797D01*
X21881506Y-16213511D01*
X21867220Y-16242083D01*
X21852934Y-16256369D01*
X21824363Y-16270654D01*
X21781506Y-16270654D01*
X22052934Y-16270654D02*
X22024363Y-16256369D01*
X22010077Y-16227797D01*
X22010077Y-15970654D01*
X22281506Y-16256369D02*
X22252934Y-16270654D01*
X22195791Y-16270654D01*
X22167220Y-16256369D01*
X22152934Y-16227797D01*
X22152934Y-16113511D01*
X22167220Y-16084940D01*
X22195791Y-16070654D01*
X22252934Y-16070654D01*
X22281506Y-16084940D01*
X22295791Y-16113511D01*
X22295791Y-16142083D01*
X22152934Y-16170654D01*
X22410077Y-16256369D02*
X22438648Y-16270654D01*
X22495791Y-16270654D01*
X22524363Y-16256369D01*
X22538648Y-16227797D01*
X22538648Y-16213511D01*
X22524363Y-16184940D01*
X22495791Y-16170654D01*
X22452934Y-16170654D01*
X22424363Y-16156369D01*
X22410077Y-16127797D01*
X22410077Y-16113511D01*
X22424363Y-16084940D01*
X22452934Y-16070654D01*
X22495791Y-16070654D01*
X22524363Y-16084940D01*
X22638648Y-16384940D02*
X22652934Y-16370654D01*
X22681506Y-16327797D01*
X22695791Y-16299226D01*
X22710077Y-16256369D01*
X22724363Y-16184940D01*
X22724363Y-16127797D01*
X22710077Y-16056369D01*
X22695791Y-16013511D01*
X22681506Y-15984940D01*
X22652934Y-15942083D01*
X22638648Y-15927797D01*
X15937096Y-16415878D02*
X16167220Y-16646002D01*
X16167220Y-16415878D02*
X15937096Y-16646002D01*
X16133520Y-16612302D02*
X16133520Y-16449578D01*
X15970796Y-16449578D01*
X15970796Y-16612302D01*
X16133520Y-16612302D01*
X16424363Y-16395226D02*
X16438648Y-16380940D01*
X16467220Y-16366654D01*
X16538648Y-16366654D01*
X16567220Y-16380940D01*
X16581506Y-16395226D01*
X16595791Y-16423797D01*
X16595791Y-16452369D01*
X16581506Y-16495226D01*
X16410077Y-16666654D01*
X16595791Y-16666654D01*
X16724363Y-16638083D02*
X16738648Y-16652369D01*
X16724363Y-16666654D01*
X16710077Y-16652369D01*
X16724363Y-16638083D01*
X16724363Y-16666654D01*
X16838648Y-16366654D02*
X17024363Y-16366654D01*
X16924363Y-16480940D01*
X16967220Y-16480940D01*
X16995791Y-16495226D01*
X17010077Y-16509511D01*
X17024363Y-16538083D01*
X17024363Y-16609511D01*
X17010077Y-16638083D01*
X16995791Y-16652369D01*
X16967220Y-16666654D01*
X16881506Y-16666654D01*
X16852934Y-16652369D01*
X16838648Y-16638083D01*
X17210077Y-16366654D02*
X17238649Y-16366654D01*
X17267220Y-16380940D01*
X17281506Y-16395226D01*
X17295791Y-16423797D01*
X17310077Y-16480940D01*
X17310077Y-16552369D01*
X17295791Y-16609511D01*
X17281506Y-16638083D01*
X17267220Y-16652369D01*
X17238649Y-16666654D01*
X17210077Y-16666654D01*
X17181506Y-16652369D01*
X17167220Y-16638083D01*
X17152934Y-16609511D01*
X17138649Y-16552369D01*
X17138649Y-16480940D01*
X17152934Y-16423797D01*
X17167220Y-16395226D01*
X17181506Y-16380940D01*
X17210077Y-16366654D01*
X17438649Y-16666654D02*
X17438649Y-16466654D01*
X17438649Y-16495226D02*
X17452934Y-16480940D01*
X17481506Y-16466654D01*
X17524363Y-16466654D01*
X17552934Y-16480940D01*
X17567220Y-16509511D01*
X17567220Y-16666654D01*
X17567220Y-16509511D02*
X17581506Y-16480940D01*
X17610077Y-16466654D01*
X17652934Y-16466654D01*
X17681506Y-16480940D01*
X17695791Y-16509511D01*
X17695791Y-16666654D01*
X17838649Y-16666654D02*
X17838649Y-16466654D01*
X17838649Y-16495226D02*
X17852934Y-16480940D01*
X17881506Y-16466654D01*
X17924363Y-16466654D01*
X17952934Y-16480940D01*
X17967220Y-16509511D01*
X17967220Y-16666654D01*
X17967220Y-16509511D02*
X17981506Y-16480940D01*
X18010077Y-16466654D01*
X18052934Y-16466654D01*
X18081506Y-16480940D01*
X18095791Y-16509511D01*
X18095791Y-16666654D01*
X18681506Y-16352369D02*
X18424363Y-16738083D01*
X19067220Y-16366654D02*
X19095791Y-16366654D01*
X19124363Y-16380940D01*
X19138648Y-16395226D01*
X19152934Y-16423797D01*
X19167220Y-16480940D01*
X19167220Y-16552369D01*
X19152934Y-16609511D01*
X19138648Y-16638083D01*
X19124363Y-16652369D01*
X19095791Y-16666654D01*
X19067220Y-16666654D01*
X19038648Y-16652369D01*
X19024363Y-16638083D01*
X19010077Y-16609511D01*
X18995791Y-16552369D01*
X18995791Y-16480940D01*
X19010077Y-16423797D01*
X19024363Y-16395226D01*
X19038648Y-16380940D01*
X19067220Y-16366654D01*
X19295791Y-16638083D02*
X19310077Y-16652369D01*
X19295791Y-16666654D01*
X19281506Y-16652369D01*
X19295791Y-16638083D01*
X19295791Y-16666654D01*
X19495791Y-16366654D02*
X19524363Y-16366654D01*
X19552934Y-16380940D01*
X19567220Y-16395226D01*
X19581506Y-16423797D01*
X19595791Y-16480940D01*
X19595791Y-16552369D01*
X19581506Y-16609511D01*
X19567220Y-16638083D01*
X19552934Y-16652369D01*
X19524363Y-16666654D01*
X19495791Y-16666654D01*
X19467220Y-16652369D01*
X19452934Y-16638083D01*
X19438648Y-16609511D01*
X19424363Y-16552369D01*
X19424363Y-16480940D01*
X19438648Y-16423797D01*
X19452934Y-16395226D01*
X19467220Y-16380940D01*
X19495791Y-16366654D01*
X19738648Y-16666654D02*
X19795791Y-16666654D01*
X19824363Y-16652369D01*
X19838648Y-16638083D01*
X19867220Y-16595226D01*
X19881506Y-16538083D01*
X19881506Y-16423797D01*
X19867220Y-16395226D01*
X19852934Y-16380940D01*
X19824363Y-16366654D01*
X19767220Y-16366654D01*
X19738648Y-16380940D01*
X19724363Y-16395226D01*
X19710077Y-16423797D01*
X19710077Y-16495226D01*
X19724363Y-16523797D01*
X19738648Y-16538083D01*
X19767220Y-16552369D01*
X19824363Y-16552369D01*
X19852934Y-16538083D01*
X19867220Y-16523797D01*
X19881506Y-16495226D01*
X20167220Y-16666654D02*
X19995791Y-16666654D01*
X20081506Y-16666654D02*
X20081506Y-16366654D01*
X20052934Y-16409511D01*
X20024363Y-16438083D01*
X19995791Y-16452369D01*
X20281506Y-16366654D02*
X20281506Y-16423797D01*
X20395791Y-16366654D02*
X20395791Y-16423797D01*
X20838648Y-16780940D02*
X20824363Y-16766654D01*
X20795791Y-16723797D01*
X20781506Y-16695226D01*
X20767220Y-16652369D01*
X20752934Y-16580940D01*
X20752934Y-16523797D01*
X20767220Y-16452369D01*
X20781506Y-16409511D01*
X20795791Y-16380940D01*
X20824363Y-16338083D01*
X20838648Y-16323797D01*
X21081506Y-16466654D02*
X21081506Y-16666654D01*
X21010077Y-16352369D02*
X20938648Y-16566654D01*
X21124363Y-16566654D01*
X21467220Y-16666654D02*
X21467220Y-16366654D01*
X21595791Y-16666654D02*
X21595791Y-16509511D01*
X21581506Y-16480940D01*
X21552934Y-16466654D01*
X21510077Y-16466654D01*
X21481506Y-16480940D01*
X21467220Y-16495226D01*
X21781506Y-16666654D02*
X21752934Y-16652369D01*
X21738648Y-16638083D01*
X21724363Y-16609511D01*
X21724363Y-16523797D01*
X21738648Y-16495226D01*
X21752934Y-16480940D01*
X21781506Y-16466654D01*
X21824363Y-16466654D01*
X21852934Y-16480940D01*
X21867220Y-16495226D01*
X21881506Y-16523797D01*
X21881506Y-16609511D01*
X21867220Y-16638083D01*
X21852934Y-16652369D01*
X21824363Y-16666654D01*
X21781506Y-16666654D01*
X22052934Y-16666654D02*
X22024363Y-16652369D01*
X22010077Y-16623797D01*
X22010077Y-16366654D01*
X22281506Y-16652369D02*
X22252934Y-16666654D01*
X22195791Y-16666654D01*
X22167220Y-16652369D01*
X22152934Y-16623797D01*
X22152934Y-16509511D01*
X22167220Y-16480940D01*
X22195791Y-16466654D01*
X22252934Y-16466654D01*
X22281506Y-16480940D01*
X22295791Y-16509511D01*
X22295791Y-16538083D01*
X22152934Y-16566654D01*
X22410077Y-16652369D02*
X22438648Y-16666654D01*
X22495791Y-16666654D01*
X22524363Y-16652369D01*
X22538648Y-16623797D01*
X22538648Y-16609511D01*
X22524363Y-16580940D01*
X22495791Y-16566654D01*
X22452934Y-16566654D01*
X22424363Y-16552369D01*
X22410077Y-16523797D01*
X22410077Y-16509511D01*
X22424363Y-16480940D01*
X22452934Y-16466654D01*
X22495791Y-16466654D01*
X22524363Y-16480940D01*
X22638648Y-16780940D02*
X22652934Y-16766654D01*
X22681506Y-16723797D01*
X22695791Y-16695226D01*
X22710077Y-16652369D01*
X22724363Y-16580940D01*
X22724363Y-16523797D01*
X22710077Y-16452369D01*
X22695791Y-16409511D01*
X22681506Y-16380940D01*
X22652934Y-16338083D01*
X22638648Y-16323797D01*
M02*
