M48
;DRILL file {KiCad 4.0.4-stable} date Fri Jul 14 18:39:53 2017
;FORMAT={-:-/ absolute / metric / decimal}
FMAT,2
METRIC,TZ
T1C0.800
T2C1.000
T3C1.001
T4C1.350
T5C1.520
T6C1.600
T7C2.300
T8C2.301
%
G90
G05
M71
T1
X192.95Y-67.65
X192.95Y-77.81
X193.102Y-110.458
X193.102Y-120.618
X193.11Y-88.975
X193.11Y-99.135
X193.2Y-46.3
X193.2Y-56.46
X196.82Y-51.85
X196.92Y-94.766
X197.42Y-116.453
X197.67Y-73.25
X199.36Y-49.31
X199.46Y-92.226
X199.96Y-113.913
X200.21Y-70.71
X201.9Y-51.85
X202.Y-94.766
X202.5Y-116.453
X202.75Y-73.25
T2
X181.65Y-50.05
X181.65Y-55.05
X181.7Y-71.25
X181.7Y-76.25
X181.7Y-91.35
X181.7Y-96.35
X181.7Y-112.25
X181.7Y-117.25
X217.95Y-96.45
X218.05Y-93.05
X218.1Y-75.1
X218.1Y-114.2
X218.15Y-118.5
X218.25Y-71.15
X218.45Y-49.65
X218.5Y-53.25
X219.75Y-89.35
X219.8Y-110.5
X219.95Y-67.45
X220.15Y-45.95
X221.45Y-93.05
X221.5Y-114.2
X221.65Y-71.15
X221.85Y-49.65
X223.15Y-89.35
X223.2Y-110.5
X223.35Y-67.45
X223.55Y-45.95
X224.85Y-93.05
X224.85Y-96.5
X224.9Y-114.2
X224.9Y-118.5
X225.05Y-71.15
X225.05Y-75.1
X225.2Y-53.4
X225.25Y-49.65
X246.7Y-44.25
X246.7Y-49.25
X246.8Y-65.55
X246.8Y-70.55
X246.8Y-107.75
X246.8Y-112.75
X247.05Y-86.3
X247.05Y-91.3
X253.4Y-71.3
X253.4Y-78.9
X253.45Y-122.25
X253.5Y-50.2
X253.51Y-57.83
X253.55Y-114.1
X253.75Y-100.45
X253.85Y-91.9
X261.62Y-87.886
X261.62Y-90.426
X261.62Y-92.456
X261.62Y-94.996
X261.62Y-109.73
X261.62Y-112.27
X261.62Y-114.3
X261.62Y-116.84
T3
X231.65Y-112.72
X231.7Y-49.27
X231.75Y-70.57
X231.75Y-91.37
X239.27Y-112.72
X239.32Y-49.27
X239.37Y-70.57
X239.37Y-91.37
X261.875Y-46.813
X261.875Y-49.353
X261.875Y-51.385
X261.875Y-53.925
X261.898Y-67.437
X261.898Y-69.977
X261.898Y-72.009
X261.898Y-74.549
T4
X166.7Y-43.05
X166.7Y-64.2
X166.7Y-84.35
X166.7Y-105.35
X171.7Y-43.05
X171.7Y-64.2
X171.7Y-84.35
X171.7Y-105.35
X181.7Y-43.05
X181.7Y-64.2
X181.7Y-84.35
X181.7Y-105.35
X186.7Y-43.05
X186.7Y-64.2
X186.7Y-84.35
X186.7Y-105.35
T5
X166.7Y-112.37
X166.7Y-117.45
T6
X210.15Y-42.45
X210.15Y-57.69
X210.25Y-63.9
X210.25Y-79.14
X210.35Y-85.8
X210.35Y-101.04
X210.4Y-107.3
X210.4Y-122.54
T7
X264.29Y-84.836
X264.29Y-98.556
X264.29Y-106.68
X264.29Y-120.4
T8
X264.542Y-43.765
X264.542Y-57.481
X264.565Y-64.389
X264.565Y-78.105
T0
M30
